<svg class="w-full" viewBox="0 0 599 204" fill="none" xmlns="http://www.w3.org/2000/svg">
<path d="M96.5269 112.833L88.0169 148.183H76.0269C76.3169 147.083 76.5569 145.843 76.7969 144.463C76.9969 143.093 77.1469 141.363 77.1469 139.243C77.1469 134.403 76.3169 130.563 74.6669 127.823C72.3469 123.973 68.5169 122.033 63.1069 122.033C56.1369 122.033 48.7669 126.643 40.9669 135.783C32.7969 145.403 28.7169 155.133 28.7169 165.043C28.7169 172.523 30.6369 178.443 34.4269 182.723C38.2369 187.033 43.1769 189.173 49.2269 189.173C54.1869 189.173 60.2169 186.703 67.4069 181.813C69.7769 180.173 72.8769 177.663 76.7469 174.303L88.7269 181.993C86.9669 183.603 85.2769 185.223 83.6369 186.763C79.0169 190.583 74.0869 193.633 68.7669 195.823C60.9869 199.083 52.8869 200.723 44.5569 200.723C32.4469 200.723 22.3669 197.723 14.3069 191.643C5.30688 184.903 0.796875 175.543 0.796875 163.633C0.796875 147.623 7.79688 134.553 21.7269 124.493C34.9269 114.973 51.1369 110.203 70.4169 110.203C74.7869 110.203 80.4069 110.633 87.1669 111.433C89.4869 111.723 92.5669 112.193 96.5269 112.843" fill="#0E8C3B"/>
<path d="M198.887 138.533C198.887 146.583 197.147 153.893 193.647 160.393C190.717 165.933 185.847 172.073 179.087 178.923C172.267 185.763 164.137 191.003 154.587 194.663C146.267 197.893 138.127 199.483 130.247 199.483C117.157 199.483 106.947 195.843 99.7273 188.483C92.9073 181.593 89.5273 172.543 89.5273 161.333C89.5273 151.973 92.1973 142.943 97.4973 134.193C101.357 127.853 106.377 122.023 112.497 116.693C117.177 112.663 119.887 110.643 120.607 110.643L144.827 110.783C144.447 110.783 142.177 113.553 137.947 119.023C132.627 125.913 128.307 132.703 125.007 139.403C120.347 148.933 117.997 157.593 117.997 165.403C117.997 174.263 119.777 180.653 123.367 184.503C126.377 187.713 130.807 189.323 136.567 189.323C144.277 189.323 151.347 184.773 157.757 175.653C164.187 166.583 167.397 156.903 167.397 146.733C167.397 142.053 166.847 138.253 165.737 135.423C164.377 131.853 161.957 129.193 158.457 127.533C157.727 127.183 156.757 126.913 155.577 126.713C154.367 126.553 153.207 126.463 151.987 126.463C150.157 126.463 148.707 126.513 147.647 126.593C146.607 126.673 145.587 126.863 144.587 127.163V119.233L175.377 109.133C180.597 111.053 184.497 112.963 187.077 114.903C194.947 120.853 198.907 128.733 198.907 138.553" fill="#0E8C3B"/>
<path d="M294.327 111.313L286.347 140.183H275.067V139.103C275.067 138.083 275.107 137.103 275.207 136.103C275.207 133.523 275.047 131.273 274.677 129.263C274.317 127.293 273.587 125.633 272.487 124.253C271.097 122.593 269.287 121.383 267.047 120.543C264.797 119.703 260.957 119.303 255.537 119.303C248.857 119.303 243.307 120.463 238.917 122.733C233.507 125.483 230.807 129.583 230.807 134.993C230.807 139.283 235.247 142.693 244.127 145.153C253.027 147.663 261.797 150.033 270.397 152.303C279.767 156.263 284.447 162.063 284.447 169.783C284.447 178.773 278.027 186.193 265.177 192.073C253.707 197.283 240.937 199.903 226.807 199.903C221.317 199.903 214.277 199.063 205.737 197.293C202.927 196.773 199.107 195.853 194.327 194.573V178.333C197.907 180.423 200.927 182.003 203.377 182.993C210.927 186.103 218.497 187.693 226.107 187.693C233.087 187.693 239.287 186.503 244.677 184.103C251.097 181.263 254.297 177.353 254.297 172.433C254.297 167.513 249.897 164.523 241.097 162.723C232.287 160.943 223.687 159.173 215.267 157.443C206.167 154.233 201.627 148.583 201.627 140.483C201.627 132.383 204.937 125.703 211.517 120.563C217.227 116.173 225.017 113.013 234.927 111.073C242.897 109.523 251.957 108.733 262.147 108.733C268.027 108.733 275.027 109.163 283.177 109.983C285.947 110.273 289.667 110.703 294.337 111.343" fill="#0E8C3B"/>
<path d="M384.547 112.833L376.047 148.183H364.047C364.347 147.083 364.597 145.843 364.837 144.463C365.037 143.093 365.167 141.363 365.167 139.243C365.167 134.403 364.347 130.563 362.687 127.823C360.387 123.973 356.527 122.033 351.107 122.033C344.167 122.033 336.777 126.643 328.977 135.783C320.817 145.403 316.737 155.133 316.737 165.043C316.737 172.523 318.657 178.443 322.447 182.723C326.267 187.033 331.197 189.173 337.227 189.173C342.207 189.173 348.237 186.703 355.377 181.813C357.777 180.173 360.897 177.663 364.747 174.303L376.717 181.993C374.997 183.603 373.267 185.223 371.647 186.763C367.047 190.583 362.077 193.633 356.777 195.823C348.977 199.083 340.927 200.723 332.567 200.723C320.447 200.723 310.377 197.723 302.307 191.643C293.337 184.903 288.827 175.543 288.827 163.633C288.827 147.623 295.807 134.553 309.717 124.493C322.927 114.973 339.157 110.203 358.427 110.203C362.817 110.203 368.417 110.633 375.197 111.433C377.497 111.723 380.647 112.193 384.557 112.843" fill="#0E8C3B"/>
<path d="M489.507 110.633L467.207 198.913H437.357L444.797 173.483C445.007 173.023 445.167 172.463 445.287 171.683C445.427 170.963 445.487 170.403 445.487 170.033C445.487 169.053 445.157 168.513 444.527 168.513C443.897 168.513 443.227 168.893 442.597 169.623C442.437 169.823 442.137 170.233 441.787 170.873C439.967 173.523 438.087 176.193 436.277 178.843C431.507 184.893 426.497 189.853 421.277 193.713C414.017 199.003 406.877 201.703 399.817 201.703C392.757 201.703 387.437 199.473 383.307 195.093C379.197 190.673 377.137 184.653 377.137 177.033C377.137 173.883 377.577 169.913 378.497 165.053C378.777 163.393 379.267 161.193 380.017 158.433L393.617 110.633H423.467L408.607 163.413C408.527 163.683 408.317 164.553 408.017 166.023C407.687 167.513 407.497 168.823 407.497 170.013C407.497 172.703 408.197 174.813 409.507 176.403C410.847 177.943 413.207 178.713 416.617 178.713C423.387 178.713 430.637 172.863 438.297 161.093C443.827 152.623 449.217 141.693 454.557 128.263C456.687 122.393 458.777 116.523 460.887 110.633H489.507Z" fill="#0E8C3B"/>
<path d="M335.097 81.5331L319.857 33.4531L311.937 47.2231C216.307 1.04312 174.907 91.7631 174.907 91.7631C174.907 91.7631 209.347 25.4131 293.767 78.6631L285.867 92.3831L335.087 81.5331H335.097Z" fill="#0E8C3B"/>
<path d="M396.217 48.103L380.987 0.0429688L373.057 13.753C277.457 -32.387 236.047 58.333 236.047 58.333C236.047 58.333 270.477 -7.98703 354.897 45.223L346.977 58.943L396.207 48.093L396.217 48.103Z" fill="#0E8C3B"/>
<path d="M587.137 116.283C580.527 112.503 572.537 110.633 563.207 110.633H549.527L547.417 112.933C548.017 114.323 548.247 115.673 548.327 116.683L548.487 118.333C548.487 119.003 548.457 119.753 548.367 120.513H550.287C555.707 120.513 560.097 122.213 563.537 125.583C566.967 128.923 568.717 133.673 568.717 139.853C568.717 147.303 565.407 153.083 558.817 157.223C554.317 160.093 548.157 162.043 540.387 163.153C539.137 163.333 537.877 163.453 536.617 163.563L535.817 165.833C535.527 167.613 535.137 169.223 533.867 171.053L532.987 172.523C533.677 172.533 534.447 172.543 535.307 172.543C544.097 172.543 552.227 171.863 559.647 170.493C570.917 168.373 579.767 164.863 586.197 160.013C594.447 153.743 598.557 145.253 598.557 134.483C598.557 126.773 594.737 120.743 587.167 116.303" fill="#0E8C3B"/>
<path d="M534.637 135.033C534.637 134.493 534.637 133.553 535.047 133.013L538.147 125.203C538.287 124.663 538.827 123.993 538.957 123.593L540.317 120.513L540.447 120.223C540.587 119.683 540.587 118.733 540.587 118.333L540.447 117.523C540.447 116.983 540.307 116.173 539.907 115.633L539.367 114.423V112.533L539.747 110.633L539.907 109.843C540.307 109.433 540.587 108.633 540.847 108.363L543.817 105.263C543.957 104.853 544.357 104.183 543.817 104.043L542.337 101.493C541.937 101.083 541.527 100.683 540.987 100.683L536.267 99.073C535.727 99.073 534.787 98.663 534.657 98.263L533.047 96.103C532.777 95.693 532.237 95.293 531.697 95.293H531.297C530.757 95.293 530.087 95.693 529.677 95.833L528.197 97.313C527.797 97.853 527.657 98.663 527.657 99.063C527.657 99.463 527.117 100.003 526.577 100.273L524.147 100.673C523.337 100.813 522.667 101.083 522.127 101.353L518.087 102.833C517.817 102.833 517.007 103.373 516.877 103.773L512.967 112.523C512.697 112.933 512.157 113.603 511.757 113.873L508.257 117.923C507.847 118.333 507.317 119.003 507.047 119.543L491.417 147.033C491.007 147.433 491.007 148.103 491.007 148.513L491.417 157.683C491.687 158.223 491.417 158.753 491.007 159.293L490.597 159.563C490.597 159.973 490.057 160.643 490.057 161.043L489.657 163.203C489.657 163.743 489.247 164.413 489.247 164.953L489.117 166.443C489.117 166.843 489.247 167.793 489.787 167.923L492.077 169.813C492.617 169.943 492.757 170.493 492.757 171.023V174.123C492.757 174.523 493.027 175.473 493.027 175.883L493.837 178.843C494.107 179.383 494.247 180.053 494.517 180.463L497.487 184.633C497.757 185.173 498.427 185.573 498.837 185.573H498.977C499.517 185.573 500.187 185.713 500.727 186.243L504.777 189.883C505.447 190.423 505.857 190.963 505.987 191.493L507.877 195.543C508.017 196.073 508.017 196.753 508.017 197.293L507.607 199.583C507.607 200.253 507.877 200.793 508.017 201.333L508.687 201.743C509.097 202.283 509.897 202.553 510.167 202.823L511.787 203.623C512.187 203.893 512.727 203.623 512.997 203.223L513.537 201.333C513.677 200.803 513.947 200.253 513.947 199.583V190.963C513.947 190.693 513.947 189.743 514.087 189.203L517.317 180.983C517.457 180.453 517.997 179.903 518.127 179.503L520.987 176.313L521.627 175.593C521.897 175.453 522.567 174.783 522.707 174.383L527.287 166.703C528.097 165.623 527.827 165.223 528.227 163.733C528.227 163.193 528.637 162.253 528.907 161.843L531.337 154.833C531.737 153.753 533.897 141.633 534.707 136.643C534.837 136.243 534.707 135.563 534.707 135.023" fill="#0E8C3B"/>
</svg>
