<svg height="55" viewBox="0 0 157 55" width="157" xmlns="http://www.w3.org/2000/svg"><g fill="none"><g transform="translate(4.588425 5.608709)"><path d="m13.2583333 8.33125h-3.0458333v-3.04583333c0-.5375-.44791667-.98541667-.98541667-.98541667s-.98541666.44791667-.98541666.98541667v3.04583333h-3.04583334c-.5375 0-.98541666.44791667-.98541666.98541667s.44791666.98541663.98541666.98541663h3.04583334v3.1354167c0 .5375.44791666.9854167.98541666.9854167s.98541667-.4479167.98541667-.9854167v-3.0458333h3.0458333c.5375 0 .9854167-.4479167.9854167-.9854167 0-.62708333-.4479167-1.075-.9854167-1.075" fill="#4588a0"/><path d="m37.1770833 8.33125h-3.0458333v-3.04583333c0-.5375-.4479167-.98541667-.9854167-.98541667s-.9854166.44791667-.9854166.98541667v3.04583333h-3.0458334c-.5375 0-.9854166.44791667-.9854166.98541667s.4479166.98541663.9854166.98541663h3.0458334v3.1354167c0 .5375.4479166.9854167.9854166.9854167s.9854167-.4479167.9854167-.9854167v-3.0458333h3.0458333c.5375 0 .9854167-.4479167.9854167-.9854167.0895833-.62708333-.3583333-1.075-.9854167-1.075" fill="#6ec38c"/><path d="m12.9895833 32.6979167h-3.0458333v-3.0458334c0-.5375-.44791667-.9854166-.98541667-.9854166s-.98541666.4479166-.98541666.9854166v3.0458334h-3.04583334c-.5375 0-.98541666.4479166-.98541666.9854166s.44791666.9854167.98541666.9854167h3.04583334v3.0458333c0 .5375.44791666.9854167.98541666.9854167s.98541667-.4479167.98541667-.9854167v-3.0458333h3.0458333c.5375 0 .9854167-.4479167.9854167-.9854167s-.4479167-.9854166-.9854167-.9854166" fill="#9373b3"/><path d="m37.1770833 32.6979167h-3.0458333v-3.0458334c0-.5375-.4479167-.9854166-.9854167-.9854166s-.9854166.4479166-.9854166.9854166v3.0458334h-3.0458334c-.5375 0-.9854166.4479166-.9854166.9854166s.4479166.9854167.9854166.9854167h3.0458334v3.0458333c0 .5375.4479166.9854167.9854166.9854167s.9854167-.4479167.9854167-.9854167v-3.0458333h3.0458333c.5375 0 .9854167-.4479167.9854167-.9854167.0895833-.5375-.3583333-.9854166-.9854167-.9854166" fill="#cd8b49"/><path d="m26.06875 14.8708333-5.0166667 5.0166667-5.0166666-5.0166667c-.3583334-.3583333-1.075-.3583333-1.4333334 0-.3583333.3583334-.3583333 1.075 0 1.4333334l5.0166667 5.0166666-5.0166667 5.0166667c-.3583333.3583333-.3583333 1.075 0 1.4333333.3583334.3583334 1.075.3583334 1.4333334 0l5.0166666-5.0166666 5.0166667 5.0166666c.3583333.3583334 1.075.3583334 1.4333333 0 .3583334-.3583333.3583334-1.075 0-1.4333333l-5.0166666-5.0166667 5.0166666-5.0166666c.3583334-.3583334.3583334-1.075 0-1.4333334-.4479166-.4479166-1.075-.4479166-1.4333333 0" fill="#7c969d"/><path d="m40.58125 23.1125c-.9854167 0-1.7916667-.80625-1.7916667-1.7916667 0-.9854166.80625-1.7916666 1.7916667-1.7916666s1.7916667.80625 1.7916667 1.7916666c0 .9854167-.80625 1.7916667-1.7916667 1.7916667" fill="#cfc62a"/><path d="m1.79166667 23.1125c-.98541667 0-1.79166667-.80625-1.79166667-1.7916667 0-.9854166.80625-1.7916666 1.79166667-1.7916666.98541666 0 1.79166666.80625 1.79166666 1.7916666.08958334.9854167-.80625 1.7916667-1.79166666 1.7916667" fill="#59adcb"/><path d="m21.0520833 42.73125c-.9854166 0-1.7916666-.80625-1.7916666-1.7916667 0-.9854166.80625-1.7916666 1.7916666-1.7916666.9854167 0 1.7916667.80625 1.7916667 1.7916666 0 .9854167-.80625 1.7916667-1.7916667 1.7916667" fill="#b75c64"/><path d="m21.0520833 3.7625c-.9854166 0-1.7916666-.80625-1.7916666-1.79166667 0-.98541666.80625-1.79166666 1.7916666-1.79166666.9854167 0 1.7916667.80625 1.7916667 1.79166666 0 .98541667-.80625 1.79166667-1.7916667 1.79166667" fill="#42896b"/></g><g fill="#848484" transform="translate(57.679925 15.793709)"><path d="m8.323 21.75c4.35 0 7.627-2.233 7.627-6.148 0-3.944-3.364-4.959-5.075-5.452l-4.089-1.189c-1.624-.464-3.712-1.189-3.712-3.306 0-2.088 2.059-3.625 4.872-3.596 2.9 0 5.22 1.74 5.655 4.437l2.233-.377c-.696-3.77-3.712-6.09-7.859-6.119-4.118 0-7.163 2.204-7.163 5.742 0 2.784 1.914 4.263 4.466 5.017l5.278 1.566c1.45.435 3.219 1.218 3.219 3.393 0 2.436-2.291 4.002-5.365 4.002-3.103 0-5.51-1.624-6.206-4.35l-2.204.348c.725 3.712 3.944 6.032 8.323 6.032z"/><path d="m26.042 5.22c-2.32 0-4.06.957-5.191 2.552v-2.117h-1.914v22.62h2.117v-8.845c1.131 1.45 2.784 2.32 4.901 2.32 4.408 0 6.96-3.596 6.96-8.294 0-4.669-2.552-8.236-6.873-8.236zm-.29 14.558c-3.335 0-4.901-2.668-4.901-6.322s1.595-6.264 4.843-6.264c3.393 0 4.959 2.726 4.959 6.264 0 3.567-1.624 6.322-4.901 6.322z"/><path d="m47.995 8.352c-.841-2.03-2.929-3.132-5.771-3.132-3.48 0-5.684 1.624-6.409 4.408l2.088.609c.58-2.059 2.117-3.016 4.263-3.016 3.016 0 4.147 1.363 4.176 4.234-2.088.261-5.017.58-7.134 1.102-2.32.609-3.973 2.001-3.973 4.553 0 2.494 1.798 4.64 5.365 4.64 2.639 0 4.727-1.044 5.945-3.016v2.581h1.914v-9.715c0-1.189-.087-2.349-.464-3.248zm-7.163 11.542c-2.523 0-3.451-1.421-3.451-2.784 0-1.682 1.363-2.465 2.697-2.842 1.74-.464 4.205-.725 6.264-.957 0 .696-.058 1.711-.232 2.465-.377 2.378-2.291 4.118-5.278 4.118z"/><path d="m55.361 6.67c-.464.377-.899.87-1.218 1.45v-2.465h-1.914v15.66h2.146v-7.801c0-1.885.232-3.915 1.798-5.162 1.16-.899 2.61-.986 3.77-.696v-2.001c-1.392-.348-3.364-.029-4.582 1.015z"/><path d="m62.698 21.315h2.146v-7.54l7.685 7.54h3.103l-8.294-7.83 7.337-7.83h-2.842l-6.989 7.54v-12.76h-2.146z"/><path d="m77.372 21.315h2.117v-21.315h-2.117z"/><path d="m85.26 14.094h12.325c.145-5.539-2.552-8.874-7.192-8.874-4.524 0-7.424 3.19-7.424 8.323 0 4.988 2.929 8.207 7.482 8.207 3.045 0 5.597-1.566 6.844-4.292l-2.001-.754c-.957 1.943-2.668 3.016-4.901 3.016-3.132 0-4.959-2.059-5.133-5.626zm5.191-6.931c2.9 0 4.553 1.769 4.901 5.133h-10.063c.348-3.277 2.117-5.133 5.162-5.133z"/></g></g></svg>