<svg viewBox="0 0 35 78" fill="none" xmlns="http://www.w3.org/2000/svg">
  <path
    d="M34.1603 56.55C34.0323 55.904 33.6728 55.1911 33.2463 54.7645C32.6552 54.1612 32.0519 53.8626 31.1988 53.7408C30.76 53.6798 30.6077 53.6859 30.1994 53.7712C29.5413 53.9053 28.9075 54.2283 28.4809 54.6487C28.2798 54.8498 26.6711 57.0314 24.6602 59.8345L21.1867 64.6729L21.1563 33.6923C21.1258 4.66778 21.1197 2.6934 21.0222 2.41919C20.7053 1.5295 20.0959 0.804342 19.3464 0.408248C18.0241 -0.28644 16.4702 -0.0609709 15.422 0.974967C14.9894 1.40153 14.7639 1.74278 14.5567 2.29731L14.4227 2.65075L14.3922 33.5948L14.3617 64.5389L10.6141 59.9564C8.55438 57.4336 6.72626 55.2276 6.54954 55.057C6.37282 54.8803 6.03766 54.6426 5.78782 54.5147C4.42282 53.8322 2.92376 54.0698 1.83298 55.1545C1.19313 55.7882 0.864072 56.5743 0.864072 57.4823C0.864072 58.0856 0.998135 58.6158 1.27845 59.1276C1.5161 59.5542 15.3123 76.4765 15.8973 77.0554C16.8845 78.0304 18.4689 78.2681 19.7547 77.6222C20.3275 77.3419 20.748 76.897 21.6498 75.6478C26.4152 69.03 33.4717 59.1886 33.6545 58.9083C33.9836 58.4025 34.142 57.8967 34.1664 57.2508C34.1786 56.9522 34.1725 56.6353 34.1603 56.55Z"
    fill="#003B33" />
</svg>