<svg width="60" height="30" viewBox="0 0 60 30" fill="none" xmlns="http://www.w3.org/2000/svg">
  <path
    d="M3 13.2778C4.10457 13.2778 5 14.1733 5 15.2778C5 16.3824 4.10457 17.2778 3 17.2778C1.89543 17.2778 1 16.3824 1 15.2778C1 14.1733 1.89543 13.2778 3 13.2778Z"
    stroke="white" />
  <g clip-path="">
    <path
      d="M26.7357 10.6973H20.7533C20.6695 10.6973 20.5908 10.6568 20.5424 10.588C20.494 10.5192 20.4824 10.4318 20.5108 10.3528L23.5016 2.08277C23.5384 1.98057 23.6358 1.91309 23.7442 1.91309C23.8526 1.91309 23.95 1.98122 23.9868 2.08277L26.9776 10.3528C27.006 10.4318 26.9944 10.5192 26.946 10.588C26.8976 10.6568 26.8189 10.6973 26.735 10.6973H26.7357ZM21.1204 10.1831H26.3679L23.7442 2.9286L21.1204 10.1831Z"
      fill="#2C636E" />
    <path
      d="M23.7442 28.6294C23.6352 28.6294 23.5384 28.5613 23.5016 28.4597L20.5108 20.1897C20.4824 20.1107 20.494 20.0233 20.5424 19.9545C20.5908 19.8857 20.6695 19.8452 20.7533 19.8452H26.7357C26.8195 19.8452 26.8982 19.8857 26.9466 19.9545C26.995 20.0233 27.0066 20.1107 26.9782 20.1897L23.9874 28.4597C23.9506 28.5619 23.8532 28.6294 23.7448 28.6294H23.7442ZM21.1204 20.3594L23.7442 27.6139L26.3679 20.3594H21.1204Z"
      fill="#2C636E" />
    <path d="M23.7442 2.16992L26.7357 10.4399H20.7533L23.7442 2.16992Z" fill="#FBE4E3" />
    <path d="M23.7442 28.3721L20.7533 20.1021H26.7357L23.7442 28.3721Z" fill="url(#paint0_linear_0_1)" />
    <path d="M26.7357 10.4399H20.7533V20.1015H26.7357V10.4399Z" fill="#C7797E" />
    <path d="M16.8167 21.768V8.77393L20.7533 10.4399V20.1021L16.8167 21.768Z" fill="url(#paint1_linear_0_1)" />
    <path d="M30.6717 8.77393V21.768L26.7357 20.1021V10.4399L30.6717 8.77393Z" fill="url(#paint2_linear_0_1)" />
    <path d="M23.7442 2.16992L20.7533 10.4399L16.8167 8.77398L23.7442 2.16992Z" fill="#EBC2C7" />
    <path d="M23.7442 28.3721L20.7533 20.1021L16.8167 21.768L23.7442 28.3721Z" fill="url(#paint3_linear_0_1)" />
    <path d="M23.7442 28.3721L26.7357 20.1021L30.6716 21.768L23.7442 28.3721Z" fill="url(#paint4_linear_0_1)" />
    <path d="M23.8868 2.32031L26.8782 10.5903L30.8142 8.92437L23.8868 2.32031Z" fill="#CF6B78" />
    <path
      d="M30.8865 21.9103C30.8891 21.9058 30.8923 21.902 30.8942 21.8975C30.8968 21.893 30.8994 21.8878 30.902 21.8833C30.9045 21.8788 30.9065 21.8743 30.9084 21.8692C30.9103 21.8641 30.9123 21.8596 30.9142 21.8544C30.9162 21.8493 30.9174 21.8448 30.9187 21.8396C30.92 21.8345 30.9213 21.8294 30.9226 21.8242C30.9239 21.8191 30.9245 21.8139 30.9258 21.8088C30.9265 21.8036 30.9271 21.7985 30.9278 21.7934C30.9278 21.7882 30.9284 21.7824 30.9291 21.7773C30.9291 21.7741 30.9291 21.7715 30.9291 21.7683V8.77421C30.9291 8.77421 30.9291 8.76843 30.9291 8.76521C30.9291 8.76007 30.9291 8.75429 30.9278 8.74914C30.9278 8.744 30.9265 8.73886 30.9258 8.73372C30.9252 8.72858 30.9239 8.72344 30.9226 8.71829C30.9213 8.71315 30.92 8.70801 30.9187 8.70287C30.9174 8.69773 30.9155 8.69323 30.9142 8.68809C30.9123 8.68294 30.9103 8.6778 30.9084 8.6733C30.9065 8.6688 30.9045 8.6643 30.902 8.65916C30.8994 8.65402 30.8968 8.64952 30.8942 8.64502C30.8916 8.64052 30.8891 8.63602 30.8865 8.63217C30.8833 8.62767 30.88 8.62317 30.8768 8.61867C30.8736 8.61481 30.8703 8.61096 30.8671 8.6071C30.8633 8.6026 30.8594 8.59875 30.8555 8.59489C30.8536 8.59296 30.8516 8.59039 30.8497 8.58846L23.9229 1.98441C23.9229 1.98441 23.9222 1.98376 23.9216 1.98312C23.9158 1.97798 23.9093 1.97348 23.9035 1.96834C23.8977 1.96384 23.8926 1.95934 23.8868 1.95548C23.8868 1.95548 23.8855 1.95484 23.8855 1.9542C23.8803 1.95098 23.8751 1.94841 23.8693 1.94584C23.8622 1.94199 23.8558 1.93813 23.8487 1.93492C23.8422 1.9317 23.8351 1.92977 23.8281 1.92785C23.8216 1.92527 23.8151 1.9227 23.8081 1.92142C23.8003 1.91949 23.7926 1.91885 23.7848 1.91756C23.7784 1.91628 23.7719 1.91499 23.7661 1.91435C23.7584 1.91371 23.7506 1.91435 23.7422 1.91435C23.7358 1.91435 23.7293 1.91435 23.7235 1.91435C23.7158 1.91435 23.7081 1.91628 23.7003 1.9182C23.6939 1.91949 23.6874 1.92013 23.6816 1.92142C23.6739 1.92335 23.6661 1.92656 23.659 1.92913C23.6532 1.93106 23.6468 1.93299 23.641 1.93556C23.6332 1.93877 23.6261 1.94327 23.619 1.94713C23.6139 1.9497 23.6087 1.95163 23.6042 1.95484C23.6042 1.95484 23.6029 1.95548 23.6029 1.95613C23.5971 1.95998 23.5919 1.96448 23.5861 1.96898C23.5803 1.97348 23.5739 1.97798 23.5681 1.98376C23.5681 1.98376 23.5674 1.98441 23.5668 1.98505L16.6387 8.58846C16.6387 8.58846 16.6348 8.59296 16.6329 8.59489C16.629 8.59875 16.6251 8.60324 16.6212 8.6071C16.618 8.61096 16.6148 8.61481 16.6116 8.61867C16.6083 8.62317 16.6051 8.62767 16.6019 8.63217C16.5993 8.63667 16.5961 8.64052 16.5941 8.64502C16.5916 8.64952 16.589 8.65466 16.5864 8.65916C16.5838 8.66366 16.5819 8.66816 16.58 8.6733C16.578 8.67844 16.5761 8.68294 16.5741 8.68809C16.5722 8.69258 16.5709 8.69773 16.5696 8.70287C16.5683 8.70801 16.5671 8.71315 16.5658 8.71829C16.5645 8.72344 16.5638 8.72858 16.5625 8.73372C16.5619 8.73886 16.5612 8.744 16.5606 8.74914C16.5606 8.75429 16.56 8.76007 16.5593 8.76521C16.5593 8.76843 16.5593 8.771 16.5593 8.77421V21.7677C16.5593 21.7677 16.5593 21.7734 16.5593 21.7766C16.5593 21.7818 16.5593 21.7876 16.5606 21.7927C16.5606 21.7979 16.5619 21.803 16.5625 21.8081C16.5632 21.8133 16.5645 21.8184 16.5658 21.8236C16.5671 21.8287 16.5683 21.8339 16.5696 21.839C16.5709 21.8441 16.5729 21.8486 16.5741 21.8538C16.5761 21.8589 16.578 21.8641 16.58 21.8686C16.5819 21.8731 16.5838 21.8776 16.5864 21.8827C16.589 21.8878 16.5916 21.8923 16.5941 21.8968C16.5967 21.9013 16.5993 21.9058 16.6019 21.9097C16.6051 21.9142 16.6083 21.9187 16.6116 21.9232C16.6148 21.927 16.618 21.9309 16.6212 21.9348C16.6251 21.9393 16.6283 21.9431 16.6329 21.947C16.6348 21.9489 16.6367 21.9515 16.6387 21.9534L23.5661 28.5575C23.5661 28.5575 23.5668 28.5575 23.5674 28.5587C23.5784 28.569 23.5906 28.5787 23.6035 28.5877C23.6035 28.5877 23.6042 28.5877 23.6048 28.5877C23.6068 28.5889 23.6087 28.5896 23.61 28.5909C23.621 28.5979 23.6326 28.6037 23.6442 28.6082C23.6487 28.6102 23.6526 28.6114 23.6571 28.6127C23.6674 28.6166 23.6777 28.6192 23.6881 28.6217C23.6926 28.6224 23.6964 28.6237 23.7003 28.6243C23.7145 28.6269 23.7293 28.6282 23.7435 28.6282C23.7584 28.6282 23.7726 28.6262 23.7868 28.6243C23.7913 28.6237 23.7951 28.6224 23.799 28.6217C23.8093 28.6192 23.8197 28.6166 23.83 28.6127C23.8345 28.6114 23.8384 28.6095 23.8429 28.6082C23.8545 28.6031 23.8661 28.5973 23.8771 28.5909C23.879 28.5896 23.881 28.5889 23.8822 28.5877C23.8822 28.5877 23.8829 28.5877 23.8835 28.5877C23.8971 28.5793 23.9087 28.5697 23.9197 28.5587C23.9197 28.5587 23.9203 28.5587 23.921 28.5575L30.8484 21.9534C30.8484 21.9534 30.8523 21.9489 30.8542 21.947C30.8581 21.9431 30.862 21.9393 30.8658 21.9348C30.8691 21.9309 30.8723 21.927 30.8755 21.9232C30.8787 21.9187 30.882 21.9142 30.8852 21.9097L30.8865 21.9103ZM23.7442 27.6139L21.1204 20.3594H26.368L23.7442 27.6139ZM17.0748 9.16306L20.4953 10.6105V19.932L17.0748 21.3794V9.16306ZM23.7442 2.92858L26.368 10.1831H21.1204L23.7442 2.92858ZM21.0114 10.6973H26.4776V19.8446H21.0114V10.6973ZM26.9937 19.932V10.6105L30.4142 9.16306V21.3794L26.9937 19.932ZM30.2104 8.69001L29.0556 9.17849L26.8853 10.097L24.359 3.11176L30.2097 8.69001H30.2104ZM23.1294 3.1124L20.603 10.0976L18.4328 9.17913L17.278 8.69066L23.1294 3.1124ZM17.278 21.8518L18.727 21.2387L20.6024 20.4449L23.1287 27.4301L17.278 21.8518ZM26.886 20.4449L28.7614 21.2387L30.2104 21.8518L24.3596 27.4301L26.886 20.4449Z"
      fill="white" />
  </g>
  <path
    d="M44.5 15.2778C44.5 16.1063 43.8284 16.7778 43 16.7778C42.1716 16.7778 41.5 16.1063 41.5 15.2778C41.5 14.4494 42.1716 13.7778 43 13.7778C43.8284 13.7778 44.5 14.4494 44.5 15.2778Z"
    fill="white" />
  <path
    d="M57 13.2778C58.1046 13.2778 59 14.1733 59 15.2778C59 16.3824 58.1046 17.2778 57 17.2778C55.8954 17.2778 55 16.3824 55 15.2778C55 14.1733 55.8954 13.2778 57 13.2778Z"
    stroke="white" />
  <defs>
    <linearGradient id="paint0_linear_0_1" x1="23.6777" y1="28.2821" x2="23.7418" y2="20.3321"
      gradientUnits="userSpaceOnUse">
      <stop stop-color="#441A1A" />
      <stop offset="1" stop-color="#A43C51" />
    </linearGradient>
    <linearGradient id="paint1_linear_0_1" x1="18.7263" y1="21.6427" x2="18.8269" y2="9.18912"
      gradientUnits="userSpaceOnUse">
      <stop stop-color="#BD4B4E" />
      <stop offset="1" stop-color="#C6898A" />
    </linearGradient>
    <linearGradient id="paint2_linear_0_1" x1="28.7627" y1="8.89862" x2="28.6615" y2="21.3522"
      gradientUnits="userSpaceOnUse">
      <stop stop-color="#C8686B" />
      <stop offset="1" stop-color="#9F3B45" />
    </linearGradient>
    <linearGradient id="paint3_linear_0_1" x1="20.2411" y1="20.1959" x2="20.3051" y2="28.1452"
      gradientUnits="userSpaceOnUse">
      <stop stop-color="#D36363" />
      <stop offset="1" stop-color="#5F2029" />
    </linearGradient>
    <linearGradient id="paint4_linear_0_1" x1="27.2479" y1="20.1959" x2="27.1839" y2="28.1452"
      gradientUnits="userSpaceOnUse">
      <stop stop-color="#B94F53" />
      <stop offset="1" stop-color="#5F232F" />
    </linearGradient>
    <clipPath id="clip0_0_1">
      <rect width="16" height="29" fill="white" transform="translate(15.5 0.777832)" />
    </clipPath>
  </defs>
</svg>