<svg width="53" height="22" viewBox="0 0 53 22" fill="none" xmlns="http://www.w3.org/2000/svg">
  <path
    d="M3.5 11C3.5 11.8284 2.82843 12.5 2 12.5C1.17157 12.5 0.5 11.8284 0.5 11C0.5 10.1716 1.17157 9.5 2 9.5C2.82843 9.5 3.5 10.1716 3.5 11Z"
    fill="white" />
  <circle cx="17" cy="11" r="3" stroke="white" />
  <path
    d="M41.4998 0C41.4524 0.257876 41.4052 0.508877 41.358 0.753C41.3109 0.997368 41.2637 1.2351 41.2166 1.46621C41.1694 1.69756 41.122 1.92228 41.0741 2.14111C41.0265 2.35994 40.9781 2.57237 40.9295 2.77892C40.8806 2.98547 40.8312 3.18612 40.7811 3.38088C40.731 3.57564 40.6799 3.76474 40.6276 3.94845C40.5756 4.13191 40.5223 4.31021 40.468 4.48287C40.4135 4.65577 40.3577 4.82302 40.3005 4.9856C40.2432 5.14794 40.1846 5.30536 40.1242 5.45788C40.0637 5.61039 40.0013 5.758 39.9372 5.90094C39.8731 6.04387 39.8071 6.18239 39.7388 6.31624C39.6705 6.45009 39.6 6.57976 39.5273 6.70526C39.4544 6.83076 39.3792 6.95184 39.3014 7.06923C39.2235 7.18663 39.143 7.29985 39.0597 7.40939C38.9764 7.51892 38.8902 7.62478 38.8011 7.72719C38.7119 7.8296 38.6196 7.92834 38.5241 8.02387C38.4285 8.11941 38.3295 8.21175 38.2274 8.3009C38.125 8.39005 38.0191 8.47626 37.9095 8.55952C37.8 8.64277 37.6865 8.72332 37.5694 8.80118C37.452 8.87903 37.3309 8.95419 37.2054 9.02713C37.0799 9.10007 36.9505 9.17031 36.8164 9.23859C36.6823 9.30686 36.544 9.37293 36.4011 9.43703C36.2581 9.50113 36.1103 9.56326 35.958 9.62393C35.8055 9.68434 35.648 9.74304 35.4857 9.80051C35.3234 9.85773 35.1559 9.91348 34.983 9.96801C34.8103 10.0225 34.6323 10.0756 34.4485 10.1279C34.2651 10.18 34.076 10.231 33.881 10.2814C33.6862 10.3317 33.4855 10.3811 33.279 10.4297C33.0724 10.4786 32.86 10.5267 32.6412 10.5744C32.4223 10.622 32.1976 10.6694 31.9662 10.7168C31.7349 10.764 31.4972 10.8111 31.253 10.8583C31.0087 10.9054 30.7576 10.9526 30.5 11C30.7579 11.0474 31.0087 11.0946 31.253 11.1417C31.4974 11.1889 31.7351 11.236 31.9662 11.2832C32.1976 11.3303 32.4223 11.3777 32.6412 11.4256C32.86 11.4735 33.0724 11.5216 33.279 11.5703C33.4855 11.6191 33.6862 11.6685 33.881 11.7186C34.0757 11.7687 34.2648 11.8198 34.4485 11.8721C34.6323 11.9242 34.8103 11.9775 34.983 12.032C35.1556 12.0865 35.3231 12.1423 35.4857 12.1995C35.648 12.2567 35.8055 12.3154 35.958 12.3761C36.1105 12.4365 36.2581 12.4986 36.4011 12.563C36.544 12.6271 36.6825 12.6931 36.8164 12.7614C36.9505 12.8297 37.0799 12.9002 37.2054 12.9729C37.3309 13.0458 37.452 13.121 37.5694 13.1988C37.6868 13.2767 37.8 13.3572 37.9095 13.4405C38.0191 13.5237 38.125 13.61 38.2274 13.6991C38.3298 13.7883 38.4285 13.8806 38.5241 13.9761C38.6196 14.0717 38.7119 14.1706 38.8011 14.2728C38.8902 14.3752 38.9764 14.4811 39.0597 14.5906C39.143 14.7001 39.2235 14.8136 39.3014 14.9308C39.3792 15.0482 39.4544 15.1692 39.5273 15.2947C39.6003 15.4202 39.6705 15.5497 39.7388 15.6838C39.8071 15.8179 39.8731 15.9561 39.9372 16.0991C40.0013 16.242 40.0635 16.3899 40.1242 16.5421C40.1846 16.6946 40.2432 16.8521 40.3005 17.0144C40.3577 17.1767 40.4135 17.3442 40.468 17.5171C40.5225 17.69 40.5756 17.8681 40.6276 18.0516C40.6797 18.235 40.7308 18.4241 40.7811 18.6191C40.8312 18.8139 40.8808 19.0145 40.9295 19.2211C40.9783 19.4276 41.0265 19.6401 41.0741 19.8589C41.122 20.0775 41.1694 20.3024 41.2166 20.5338C41.2637 20.7651 41.3109 21.0029 41.358 21.247C41.4052 21.4914 41.4524 21.7424 41.4998 22C41.5472 21.7421 41.5943 21.4911 41.6415 21.247C41.6886 21.0026 41.7358 20.7649 41.7829 20.5338C41.8301 20.3024 41.8775 20.0777 41.9254 19.8589C41.973 19.6401 42.0214 19.4276 42.0701 19.2211C42.1187 19.0145 42.1683 18.8139 42.2184 18.6191C42.2685 18.4244 42.3196 18.2353 42.3719 18.0516C42.4242 17.8678 42.4773 17.6898 42.5318 17.5171C42.5863 17.3445 42.6421 17.177 42.6993 17.0144C42.7565 16.8521 42.8152 16.6946 42.8759 16.5421C42.9363 16.3896 42.9984 16.242 43.0628 16.0991C43.1271 15.9561 43.1929 15.8176 43.2612 15.6838C43.3295 15.5499 43.4 15.4202 43.4727 15.2947C43.5456 15.1692 43.6208 15.0482 43.6986 14.9308C43.7765 14.8134 43.857 14.7001 43.9403 14.5906C44.0236 14.4811 44.1098 14.3752 44.1989 14.2728C44.2881 14.1704 44.3804 14.0717 44.476 13.9761C44.5715 13.8806 44.6705 13.7883 44.7727 13.6991C44.8751 13.61 44.9809 13.5237 45.0905 13.4405C45.2 13.3572 45.3135 13.2767 45.4306 13.1988C45.5478 13.121 45.6691 13.0458 45.7946 12.9729C45.9201 12.8999 46.0495 12.8297 46.1836 12.7614C46.3177 12.6931 46.456 12.6271 46.5989 12.563C46.7419 12.4989 46.8895 12.4367 47.042 12.3761C47.1945 12.3157 47.3517 12.257 47.5143 12.1995C47.6766 12.1423 47.8441 12.0865 48.017 12.032C48.1897 11.9775 48.3678 11.9244 48.5515 11.8721C48.7349 11.82 48.924 11.769 49.119 11.7186C49.3138 11.6683 49.5145 11.6189 49.721 11.5703C49.9276 11.5214 50.14 11.4733 50.3589 11.4256C50.5775 11.378 50.8024 11.3303 51.0338 11.2832C51.2651 11.236 51.5029 11.1889 51.747 11.1417C51.9914 11.0946 52.2424 11.0474 52.5 11C52.2421 10.9526 51.9914 10.9054 51.747 10.8583C51.5026 10.8111 51.2649 10.764 51.0338 10.7168C50.8024 10.6697 50.5777 10.6223 50.3589 10.5744C50.14 10.5265 49.9276 10.4784 49.721 10.4297C49.5145 10.3809 49.3138 10.3315 49.119 10.2814C48.9243 10.2313 48.7352 10.1802 48.5515 10.1279C48.3678 10.0758 48.1897 10.0225 48.017 9.96801C47.8444 9.91348 47.6769 9.85773 47.5143 9.80051C47.352 9.74328 47.1945 9.68459 47.042 9.62393C46.8895 9.56351 46.7419 9.50138 46.5989 9.43703C46.456 9.37293 46.3175 9.30686 46.1836 9.23859C46.0495 9.17031 45.9201 9.09983 45.7946 9.02713C45.6691 8.95419 45.548 8.87903 45.4306 8.80118C45.3132 8.72332 45.2 8.64277 45.0905 8.55952C44.9809 8.47626 44.8751 8.39005 44.7727 8.3009C44.6702 8.21175 44.5715 8.11941 44.476 8.02387C44.3804 7.92834 44.2881 7.82936 44.1989 7.72719C44.1098 7.62478 44.0236 7.51892 43.9403 7.40939C43.857 7.29985 43.7765 7.18638 43.6986 7.06923C43.6208 6.95184 43.5456 6.83076 43.4727 6.70526C43.3997 6.57976 43.3295 6.45034 43.2612 6.31624C43.1929 6.18215 43.1269 6.04387 43.0628 5.90094C42.9987 5.758 42.9365 5.61015 42.8759 5.45788C42.8155 5.30536 42.7568 5.14794 42.6993 4.9856C42.6421 4.82326 42.5863 4.65577 42.5318 4.48287C42.4773 4.31021 42.4242 4.13191 42.3719 3.94845C42.3196 3.76499 42.2687 3.57564 42.2184 3.38088C42.1683 3.18612 42.1187 2.98547 42.0701 2.77892C42.0212 2.57237 41.973 2.35994 41.9254 2.14111C41.8775 1.92253 41.8301 1.69756 41.7829 1.46621C41.7358 1.23486 41.6886 0.997368 41.6415 0.753C41.5946 0.508632 41.5474 0.25763 41.4998 0Z"
    fill="#F5FDFC" />
</svg>