<svg width="22" height="27" viewBox="0 0 22 27" fill="none" xmlns="http://www.w3.org/2000/svg">
  <path
    d="M16.8451 17.9611C16.8256 18.067 16.8062 18.1701 16.7869 18.2704C16.7675 18.3708 16.7481 18.4685 16.7287 18.5635C16.7094 18.6585 16.6899 18.7508 16.6702 18.8408C16.6506 18.9307 16.6308 19.0179 16.6108 19.1028C16.5907 19.1877 16.5704 19.2701 16.5498 19.3501C16.5292 19.4301 16.5083 19.5078 16.4868 19.5833C16.4654 19.6587 16.4435 19.7319 16.4212 19.8029C16.3988 19.8739 16.3759 19.9426 16.3523 20.0094C16.3288 20.0761 16.3047 20.1408 16.2799 20.2035C16.2551 20.2661 16.2294 20.3268 16.2031 20.3855C16.1768 20.4442 16.1496 20.5011 16.1216 20.5561C16.0935 20.6111 16.0646 20.6644 16.0347 20.716C16.0047 20.7675 15.9738 20.8173 15.9419 20.8655C15.9099 20.9137 15.8768 20.9603 15.8426 21.0053C15.8084 21.0503 15.7729 21.0938 15.7363 21.1358C15.6997 21.1779 15.6617 21.2185 15.6225 21.2577C15.5832 21.297 15.5426 21.3349 15.5006 21.3716C15.4585 21.4082 15.415 21.4436 15.37 21.4778C15.325 21.512 15.2784 21.5451 15.2303 21.5771C15.182 21.6091 15.1323 21.64 15.0807 21.6699C15.0292 21.6999 14.976 21.7288 14.9209 21.7568C14.8658 21.7849 14.809 21.812 14.7502 21.8383C14.6915 21.8647 14.6308 21.8902 14.5682 21.9151C14.5055 21.9399 14.4409 21.9641 14.3742 21.9877C14.3075 22.0112 14.2386 22.0341 14.1676 22.0565C14.0967 22.0789 14.0235 22.1007 13.948 22.1222C13.8727 22.1436 13.795 22.1646 13.7148 22.1853C13.6348 22.2059 13.5524 22.2262 13.4675 22.2462C13.3826 22.2663 13.2954 22.2861 13.2055 22.3056C13.1155 22.3252 13.0232 22.3447 12.9282 22.3642C12.8331 22.3835 12.7354 22.4029 12.6351 22.4223C12.5347 22.4416 12.4316 22.461 12.3257 22.4805C12.4317 22.5 12.5347 22.5193 12.6351 22.5387C12.7355 22.5581 12.8332 22.5775 12.9282 22.5968C13.0232 22.6162 13.1155 22.6357 13.2055 22.6554C13.2954 22.675 13.3826 22.6948 13.4675 22.7148C13.5524 22.7349 13.6348 22.7552 13.7148 22.7757C13.7949 22.7963 13.8726 22.8173 13.948 22.8388C14.0235 22.8602 14.0967 22.8821 14.1676 22.9045C14.2385 22.9269 14.3074 22.9498 14.3742 22.9733C14.4409 22.9968 14.5055 23.0209 14.5682 23.0459C14.6309 23.0707 14.6915 23.0962 14.7502 23.1227C14.809 23.149 14.8659 23.1761 14.9209 23.2042C14.976 23.2322 15.0292 23.2612 15.0807 23.2911C15.1323 23.321 15.182 23.3519 15.2303 23.3839C15.2785 23.4159 15.325 23.449 15.37 23.4832C15.415 23.5174 15.4585 23.5528 15.5006 23.5894C15.5427 23.6261 15.5832 23.664 15.6225 23.7033C15.6617 23.7425 15.6997 23.7832 15.7363 23.8252C15.7729 23.8672 15.8084 23.9107 15.8426 23.9557C15.8768 24.0007 15.9099 24.0474 15.9419 24.0955C15.9738 24.1437 16.0047 24.1935 16.0347 24.245C16.0647 24.2966 16.0935 24.3498 16.1216 24.4049C16.1496 24.46 16.1768 24.5168 16.2031 24.5755C16.2294 24.6342 16.255 24.695 16.2799 24.7575C16.3047 24.8202 16.3288 24.8849 16.3523 24.9516C16.3759 25.0183 16.3988 25.0871 16.4212 25.1581C16.4436 25.2292 16.4654 25.3023 16.4868 25.3777C16.5082 25.4531 16.5291 25.5308 16.5498 25.6109C16.5704 25.6909 16.5908 25.7733 16.6108 25.8582C16.6309 25.9431 16.6506 26.0303 16.6702 26.1202C16.6899 26.2101 16.7094 26.3025 16.7287 26.3975C16.7481 26.4926 16.7675 26.5903 16.7869 26.6906C16.8062 26.791 16.8256 26.8941 16.8451 26.9999C16.8646 26.894 16.8839 26.7909 16.9033 26.6906C16.9227 26.5902 16.9421 26.4925 16.9614 26.3975C16.9808 26.3025 17.0003 26.2102 17.02 26.1202C17.0395 26.0303 17.0594 25.9431 17.0794 25.8582C17.0994 25.7733 17.1198 25.6909 17.1403 25.6109C17.1609 25.5309 17.1819 25.4532 17.2034 25.3777C17.2249 25.3022 17.2467 25.2291 17.2691 25.1581C17.2915 25.0872 17.3144 25.0184 17.3379 24.9516C17.3614 24.8849 17.3855 24.8202 17.4105 24.7575C17.4353 24.6949 17.4608 24.6342 17.4873 24.5755C17.5137 24.5168 17.5407 24.4599 17.5688 24.4049C17.5968 24.3499 17.6258 24.2966 17.6557 24.245C17.6856 24.1935 17.7165 24.1437 17.7485 24.0955C17.7805 24.0473 17.8136 24.0007 17.8478 23.9557C17.882 23.9107 17.9174 23.8672 17.9541 23.8252C17.9907 23.7831 18.0286 23.7425 18.0679 23.7033C18.1071 23.664 18.1478 23.6261 18.1898 23.5894C18.2319 23.5528 18.2753 23.5174 18.3204 23.4832C18.3654 23.449 18.412 23.4159 18.4601 23.3839C18.5082 23.3519 18.5581 23.321 18.6096 23.2911C18.6612 23.2611 18.7144 23.2322 18.7695 23.2042C18.8246 23.1761 18.8814 23.149 18.9401 23.1227C18.9988 23.0963 19.0595 23.0708 19.1222 23.0459C19.1848 23.021 19.2494 22.9969 19.3162 22.9733C19.3829 22.9498 19.4517 22.9269 19.5228 22.9045C19.5937 22.8821 19.6669 22.8603 19.7423 22.8388C19.8177 22.8174 19.8954 22.7964 19.9755 22.7757C20.0556 22.7551 20.138 22.7348 20.2229 22.7148C20.3077 22.6947 20.395 22.6749 20.4849 22.6554C20.5747 22.6358 20.6672 22.6162 20.7622 22.5968C20.8573 22.5775 20.9549 22.5581 21.0552 22.5387C21.1557 22.5193 21.2588 22.5 21.3646 22.4805C21.2587 22.461 21.1557 22.4416 21.0552 22.4223C20.9548 22.4029 20.8572 22.3835 20.7622 22.3642C20.6672 22.3448 20.5748 22.3253 20.4849 22.3056C20.395 22.286 20.3077 22.2662 20.2229 22.2462C20.138 22.2261 20.0556 22.2058 19.9755 22.1853C19.8955 22.1647 19.8178 22.1437 19.7423 22.1222C19.6669 22.1008 19.5937 22.0789 19.5228 22.0565C19.4518 22.0341 19.383 22.0112 19.3162 21.9877C19.2495 21.9642 19.1848 21.9401 19.1222 21.9151C19.0595 21.8903 18.9988 21.8648 18.9401 21.8383C18.8814 21.812 18.8245 21.7849 18.7695 21.7568C18.7144 21.7288 18.6612 21.6998 18.6096 21.6699C18.5581 21.64 18.5083 21.6091 18.4601 21.5771C18.4119 21.5451 18.3654 21.512 18.3204 21.4778C18.2753 21.4436 18.2319 21.4082 18.1898 21.3716C18.1477 21.3349 18.1071 21.297 18.0679 21.2577C18.0286 21.2185 17.9907 21.1778 17.9541 21.1358C17.9174 21.0938 17.882 21.0503 17.8478 21.0053C17.8136 20.9603 17.7805 20.9136 17.7485 20.8655C17.7165 20.8173 17.6856 20.7675 17.6557 20.716C17.6257 20.6644 17.5968 20.6112 17.5688 20.5561C17.5407 20.501 17.5136 20.4442 17.4873 20.3855C17.4609 20.3268 17.4354 20.266 17.4105 20.2035C17.3856 20.1408 17.3615 20.0761 17.3379 20.0094C17.3144 19.9427 17.2915 19.8739 17.2691 19.8029C17.2467 19.7319 17.2249 19.6587 17.2034 19.5833C17.1819 19.5079 17.161 19.4301 17.1403 19.3501C17.1198 19.2701 17.0994 19.1877 17.0794 19.1028C17.0593 19.0179 17.0395 18.9307 17.02 18.8408C17.0003 18.7509 16.9808 18.6585 16.9614 18.5635C16.9421 18.4684 16.9227 18.3708 16.9033 18.2704C16.884 18.17 16.8647 18.0669 16.8451 17.9611Z"
    fill="#F5FDFC" />
  <path
    d="M8.36416 0C8.3281 0.196031 8.29219 0.386888 8.25634 0.572647C8.2205 0.758405 8.18472 0.939207 8.1488 1.11505C8.11289 1.2909 8.07683 1.46193 8.04056 1.62822C8.00428 1.79452 7.96757 1.95614 7.93051 2.11317C7.89344 2.27019 7.85587 2.42276 7.81766 2.57088C7.77944 2.71907 7.74065 2.86281 7.701 3.00245C7.66135 3.14202 7.62091 3.2775 7.57954 3.40888C7.53816 3.54026 7.49578 3.66762 7.45225 3.7911C7.40872 3.91458 7.36404 4.03425 7.31807 4.15019C7.27209 4.26613 7.22482 4.3784 7.17605 4.48715C7.12727 4.59591 7.077 4.70114 7.02513 4.80307C6.9732 4.90493 6.91968 5.00349 6.8643 5.09888C6.80892 5.19427 6.75174 5.28643 6.69255 5.37558C6.63336 5.46479 6.57216 5.55092 6.5088 5.63425C6.44545 5.71757 6.37993 5.79809 6.31212 5.87589C6.24431 5.95368 6.17413 6.02889 6.10144 6.10151C6.02882 6.17414 5.95361 6.24432 5.87581 6.3122C5.79802 6.38008 5.71749 6.44552 5.63417 6.50888C5.55084 6.57223 5.46465 6.63336 5.3755 6.69255C5.28636 6.75174 5.19413 6.80892 5.09873 6.8643C5.00334 6.91969 4.90485 6.97327 4.80292 7.02513C4.70107 7.07707 4.59583 7.12728 4.48708 7.17605C4.37832 7.22483 4.26605 7.27209 4.15011 7.31814C4.03417 7.36418 3.91451 7.40879 3.79103 7.45232C3.66755 7.49585 3.54018 7.53823 3.4088 7.57961C3.27742 7.62106 3.14202 7.66143 3.00245 7.70108C2.86288 7.74073 2.71907 7.77952 2.57088 7.81773C2.42269 7.85595 2.27019 7.89352 2.11316 7.93058C1.95614 7.96765 1.79452 8.00428 1.62822 8.04063C1.46193 8.07698 1.2909 8.11304 1.11505 8.14895C0.939205 8.18487 0.758401 8.22064 0.572642 8.25648C0.386884 8.29233 0.196031 8.32817 0 8.36431C0.196031 8.40037 0.386884 8.43628 0.572642 8.47213C0.758401 8.50797 0.939205 8.54374 1.11505 8.57966C1.2909 8.61558 1.46193 8.65164 1.62822 8.68791C1.79452 8.72426 1.95614 8.76089 2.11316 8.79796C2.27019 8.83502 2.42276 8.87259 2.57088 8.91081C2.71907 8.94902 2.86281 8.98781 3.00245 9.02746C3.14209 9.06711 3.27742 9.10756 3.4088 9.14893C3.54018 9.19038 3.66755 9.23276 3.79103 9.27622C3.91451 9.31975 4.03417 9.36443 4.15011 9.4104C4.26605 9.45638 4.37832 9.50371 4.48708 9.55249C4.59583 9.60126 4.70107 9.65154 4.80292 9.70341C4.90485 9.75534 5.00334 9.80886 5.09873 9.86424C5.19413 9.91962 5.28629 9.9768 5.3755 10.036C5.46472 10.0952 5.55084 10.1564 5.63417 10.2197C5.71749 10.2831 5.79802 10.3486 5.87581 10.4164C5.95361 10.4842 6.02882 10.5544 6.10144 10.6271C6.17413 10.6998 6.24424 10.7749 6.31212 10.8527C6.38 10.9305 6.44545 11.011 6.5088 11.0944C6.57216 11.1777 6.63336 11.2639 6.69255 11.353C6.75174 11.4422 6.80892 11.5344 6.8643 11.6298C6.91968 11.7252 6.97327 11.8237 7.02513 11.9256C7.07707 12.0275 7.12727 12.1327 7.17605 12.2415C7.22482 12.3502 7.27209 12.4625 7.31807 12.5784C7.36404 12.6944 7.40872 12.814 7.45225 12.9375C7.49578 13.061 7.53816 13.1884 7.57954 13.3197C7.62091 13.4511 7.66135 13.5865 7.701 13.7261C7.74065 13.8657 7.77944 14.0095 7.81766 14.1577C7.85587 14.3059 7.89344 14.4584 7.93051 14.6154C7.96757 14.7724 8.00421 14.934 8.04056 15.1003C8.0769 15.2666 8.11296 15.4376 8.1488 15.6135C8.18472 15.7893 8.2205 15.9701 8.25634 16.1559C8.29219 16.3417 8.32803 16.5325 8.36416 16.7285C8.40022 16.5325 8.43613 16.3417 8.47198 16.1559C8.50782 15.9701 8.5436 15.7893 8.57952 15.6135C8.61543 15.4376 8.65149 15.2666 8.68784 15.1003C8.72418 14.934 8.76082 14.7724 8.79788 14.6154C8.83495 14.4584 8.87252 14.3058 8.91073 14.1577C8.94895 14.0095 8.98774 13.8657 9.02739 13.7261C9.06704 13.5865 9.10748 13.4511 9.14885 13.3197C9.19023 13.1884 9.23269 13.061 9.27615 12.9375C9.31968 12.814 9.36435 12.6944 9.41032 12.5784C9.4563 12.4625 9.50356 12.3502 9.55241 12.2415C9.60118 12.1327 9.65146 12.0275 9.70333 11.9256C9.75526 11.8237 9.80878 11.7252 9.86416 11.6298C9.91954 11.5344 9.97672 11.4423 10.0359 11.353C10.0951 11.2638 10.1563 11.1777 10.2197 11.0944C10.283 11.011 10.3485 10.9305 10.4163 10.8527C10.4841 10.7749 10.5543 10.6997 10.627 10.6271C10.6997 10.5544 10.7749 10.4843 10.8526 10.4164C10.9304 10.3486 11.011 10.2831 11.0943 10.2197C11.1776 10.1564 11.2638 10.0952 11.353 10.036C11.4421 9.9768 11.5343 9.91962 11.6297 9.86424C11.7251 9.80886 11.8236 9.75534 11.9255 9.70341C12.0274 9.65147 12.1327 9.60126 12.2415 9.55249C12.3502 9.50371 12.4625 9.45645 12.5784 9.4104C12.6944 9.36443 12.814 9.31975 12.9375 9.27622C13.061 9.23269 13.1884 9.19031 13.3197 9.14893C13.4511 9.10748 13.5865 9.06711 13.7261 9.02746C13.8657 8.98781 14.0095 8.94902 14.1577 8.91081C14.3058 8.87259 14.4584 8.83502 14.6154 8.79796C14.7725 8.76089 14.934 8.72426 15.1003 8.68791C15.2666 8.65156 15.4376 8.61558 15.6135 8.57966C15.7893 8.54374 15.9701 8.50797 16.1559 8.47213C16.3416 8.43628 16.5325 8.40044 16.7285 8.36431C16.5325 8.32825 16.3416 8.29233 16.1559 8.25648C15.9701 8.22064 15.7893 8.18487 15.6135 8.14895C15.4376 8.11304 15.2666 8.07698 15.1003 8.04063C14.934 8.00428 14.7724 7.96765 14.6154 7.93058C14.4584 7.89352 14.3058 7.85595 14.1577 7.81773C14.0095 7.77952 13.8657 7.74073 13.7261 7.70108C13.5865 7.66143 13.4511 7.62099 13.3197 7.57961C13.1884 7.53823 13.061 7.49585 12.9375 7.45232C12.814 7.40879 12.6944 7.36411 12.5784 7.31814C12.4625 7.27217 12.3502 7.2249 12.2415 7.17605C12.1327 7.12728 12.0275 7.077 11.9255 7.02513C11.8236 6.97327 11.7251 6.91969 11.6297 6.8643C11.5343 6.80892 11.4422 6.75174 11.353 6.69255C11.2637 6.63336 11.1776 6.57216 11.0943 6.50888C11.011 6.44552 10.9304 6.38001 10.8526 6.3122C10.7749 6.24439 10.6996 6.17421 10.627 6.10151C10.5543 6.02882 10.4842 5.95368 10.4163 5.87589C10.3485 5.79809 10.283 5.71757 10.2197 5.63425C10.1563 5.55092 10.0951 5.46472 10.0359 5.37558C9.97672 5.28643 9.91954 5.1942 9.86416 5.09888C9.80878 5.00349 9.75526 4.90493 9.70333 4.80307C9.65139 4.70121 9.60118 4.59591 9.55241 4.48715C9.50364 4.3784 9.45637 4.26613 9.41032 4.15019C9.36435 4.03425 9.31968 3.91458 9.27615 3.7911C9.23262 3.66762 9.19023 3.54026 9.14885 3.40888C9.10741 3.2775 9.06704 3.14209 9.02739 3.00245C8.98774 2.86288 8.94895 2.71907 8.91073 2.57088C8.87252 2.42269 8.83495 2.27019 8.79788 2.11317C8.76082 1.95614 8.72418 1.79452 8.68784 1.62822C8.65149 1.46193 8.61543 1.2909 8.57952 1.11505C8.5436 0.939207 8.50782 0.758405 8.47198 0.572647C8.43613 0.386888 8.40029 0.196031 8.36416 0Z"
    fill="#F5FDFC" />
</svg>