<svg width="58" height="30" viewBox="0 0 58 30" fill="none" xmlns="http://www.w3.org/2000/svg">
  <path
    d="M3 13.3887C4.10457 13.3887 5 14.2841 5 15.3887C5 16.4932 4.10457 17.3887 3 17.3887C1.89543 17.3887 1 16.4932 1 15.3887C1 14.2841 1.89543 13.3887 3 13.3887Z"
    stroke="white" />
  <path
    d="M18.5 15.3887C18.5 16.2171 17.8284 16.8887 17 16.8887C16.1716 16.8887 15.5 16.2171 15.5 15.3887C15.5 14.5602 16.1716 13.8887 17 13.8887C17.8284 13.8887 18.5 14.5602 18.5 15.3887Z"
    fill="white" />
  <g clip-path="url(#clip0_0_1)">
    <path
      d="M39.7357 10.8081H33.7533C33.6695 10.8081 33.5908 10.7676 33.5424 10.6989C33.494 10.6301 33.4824 10.5427 33.5108 10.4636L36.5016 2.19361C36.5384 2.09141 36.6358 2.02393 36.7442 2.02393C36.8526 2.02393 36.95 2.09206 36.9868 2.19361L39.9776 10.4636C40.006 10.5427 39.9944 10.6301 39.946 10.6989C39.8976 10.7676 39.8189 10.8081 39.735 10.8081H39.7357ZM34.1204 10.2939H39.368L36.7442 3.03944L34.1204 10.2939Z"
      fill="#2C636E" />
    <path
      d="M36.7442 28.7403C36.6352 28.7403 36.5384 28.6721 36.5016 28.5706L33.5108 20.3006C33.4824 20.2215 33.494 20.1341 33.5424 20.0653C33.5908 19.9965 33.6695 19.9561 33.7533 19.9561H39.7357C39.8195 19.9561 39.8983 19.9965 39.9466 20.0653C39.995 20.1341 40.0066 20.2215 39.9783 20.3006L36.9874 28.5706C36.9506 28.6728 36.8532 28.7403 36.7448 28.7403H36.7442ZM34.1204 20.4702L36.7442 27.7247L39.368 20.4702H34.1204Z"
      fill="#2C636E" />
    <path d="M36.7442 2.28076L39.7357 10.5508H33.7533L36.7442 2.28076Z" fill="#FBE4E3" />
    <path d="M36.7442 28.4829L33.7533 20.2129H39.7357L36.7442 28.4829Z" fill="url(#paint0_linear_0_1)" />
    <path d="M39.7357 10.5508H33.7533V20.2123H39.7357V10.5508Z" fill="#C7797E" />
    <path d="M29.8167 21.8788V8.88477L33.7533 10.5507V20.2129L29.8167 21.8788Z" fill="url(#paint1_linear_0_1)" />
    <path d="M43.6717 8.88477V21.8788L39.7357 20.2129V10.5507L43.6717 8.88477Z" fill="url(#paint2_linear_0_1)" />
    <path d="M36.7442 2.28076L33.7533 10.5508L29.8167 8.88482L36.7442 2.28076Z" fill="#EBC2C7" />
    <path d="M36.7442 28.4829L33.7533 20.2129L29.8167 21.8788L36.7442 28.4829Z" fill="url(#paint3_linear_0_1)" />
    <path d="M36.7442 28.4829L39.7357 20.2129L43.6716 21.8788L36.7442 28.4829Z" fill="url(#paint4_linear_0_1)" />
    <path d="M36.8868 2.43115L39.8783 10.7012L43.8142 9.03521L36.8868 2.43115Z" fill="#CF6B78" />
    <path
      d="M43.8865 22.0212C43.8891 22.0167 43.8923 22.0128 43.8942 22.0083C43.8968 22.0038 43.8994 21.9987 43.902 21.9942C43.9046 21.9897 43.9065 21.9852 43.9084 21.98C43.9104 21.9749 43.9123 21.9704 43.9142 21.9653C43.9162 21.9601 43.9175 21.9556 43.9188 21.9505C43.92 21.9453 43.9213 21.9402 43.9226 21.9351C43.9239 21.9299 43.9246 21.9248 43.9258 21.9196C43.9265 21.9145 43.9271 21.9093 43.9278 21.9042C43.9278 21.8991 43.9284 21.8933 43.9291 21.8881C43.9291 21.8849 43.9291 21.8823 43.9291 21.8791V8.88505C43.9291 8.88505 43.9291 8.87927 43.9291 8.87605C43.9291 8.87091 43.9291 8.86513 43.9278 8.85998C43.9278 8.85484 43.9265 8.8497 43.9258 8.84456C43.9252 8.83942 43.9239 8.83428 43.9226 8.82913C43.9213 8.82399 43.92 8.81885 43.9188 8.81371C43.9175 8.80857 43.9155 8.80407 43.9142 8.79892C43.9123 8.79378 43.9104 8.78864 43.9084 8.78414C43.9065 8.77964 43.9046 8.77514 43.902 8.77C43.8994 8.76486 43.8968 8.76036 43.8942 8.75586C43.8917 8.75136 43.8891 8.74686 43.8865 8.74301C43.8833 8.73851 43.88 8.73401 43.8768 8.72951C43.8736 8.72565 43.8704 8.7218 43.8671 8.71794C43.8633 8.71344 43.8594 8.70959 43.8555 8.70573C43.8536 8.7038 43.8517 8.70123 43.8497 8.6993L36.9229 2.09525C36.9229 2.09525 36.9223 2.0946 36.9216 2.09396C36.9158 2.08882 36.9094 2.08432 36.9035 2.07918C36.8977 2.07468 36.8926 2.07018 36.8868 2.06632C36.8868 2.06632 36.8855 2.06568 36.8855 2.06504C36.8803 2.06182 36.8752 2.05925 36.8694 2.05668C36.8623 2.05283 36.8558 2.04897 36.8487 2.04576C36.8423 2.04254 36.8352 2.04061 36.8281 2.03869C36.8216 2.03611 36.8152 2.03354 36.8081 2.03226C36.8003 2.03033 36.7926 2.02969 36.7848 2.0284C36.7784 2.02712 36.7719 2.02583 36.7661 2.02519C36.7584 2.02455 36.7507 2.02519 36.7423 2.02519C36.7358 2.02519 36.7294 2.02519 36.7236 2.02519C36.7158 2.02519 36.7081 2.02712 36.7003 2.02904C36.6939 2.03033 36.6874 2.03097 36.6816 2.03226C36.6739 2.03419 36.6661 2.0374 36.659 2.03997C36.6532 2.0419 36.6468 2.04383 36.641 2.0464C36.6332 2.04961 36.6261 2.05411 36.619 2.05797C36.6139 2.06054 36.6087 2.06247 36.6042 2.06568C36.6042 2.06568 36.6029 2.06632 36.6029 2.06697C36.5971 2.07082 36.5919 2.07532 36.5861 2.07982C36.5803 2.08432 36.5739 2.08882 36.5681 2.0946C36.5681 2.0946 36.5674 2.09525 36.5668 2.09589L29.6387 8.6993C29.6387 8.6993 29.6348 8.7038 29.6329 8.70573C29.629 8.70959 29.6251 8.71408 29.6213 8.71794C29.618 8.7218 29.6148 8.72565 29.6116 8.72951C29.6084 8.73401 29.6051 8.73851 29.6019 8.74301C29.5993 8.74751 29.5961 8.75136 29.5942 8.75586C29.5916 8.76036 29.589 8.7655 29.5864 8.77C29.5838 8.7745 29.5819 8.779 29.58 8.78414C29.578 8.78928 29.5761 8.79378 29.5742 8.79892C29.5722 8.80342 29.5709 8.80857 29.5696 8.81371C29.5684 8.81885 29.5671 8.82399 29.5658 8.82913C29.5645 8.83428 29.5638 8.83942 29.5626 8.84456C29.5619 8.8497 29.5613 8.85484 29.5606 8.85998C29.5606 8.86513 29.56 8.87091 29.5593 8.87605C29.5593 8.87927 29.5593 8.88184 29.5593 8.88505V21.8785C29.5593 21.8785 29.5593 21.8843 29.5593 21.8875C29.5593 21.8926 29.5593 21.8984 29.5606 21.9036C29.5606 21.9087 29.5619 21.9138 29.5626 21.919C29.5632 21.9241 29.5645 21.9293 29.5658 21.9344C29.5671 21.9396 29.5684 21.9447 29.5696 21.9498C29.5709 21.955 29.5729 21.9595 29.5742 21.9646C29.5761 21.9698 29.578 21.9749 29.58 21.9794C29.5819 21.9839 29.5838 21.9884 29.5864 21.9935C29.589 21.9987 29.5916 22.0032 29.5942 22.0077C29.5967 22.0122 29.5993 22.0167 29.6019 22.0205C29.6051 22.025 29.6084 22.0295 29.6116 22.034C29.6148 22.0379 29.618 22.0417 29.6213 22.0456C29.6251 22.0501 29.6284 22.054 29.6329 22.0578C29.6348 22.0597 29.6367 22.0623 29.6387 22.0642L36.5661 28.6683C36.5661 28.6683 36.5668 28.6683 36.5674 28.6696C36.5784 28.6799 36.5907 28.6895 36.6036 28.6985C36.6036 28.6985 36.6042 28.6985 36.6048 28.6985C36.6068 28.6998 36.6087 28.7004 36.61 28.7017C36.621 28.7088 36.6326 28.7146 36.6442 28.7191C36.6487 28.721 36.6526 28.7223 36.6571 28.7236C36.6674 28.7274 36.6778 28.73 36.6881 28.7326C36.6926 28.7332 36.6965 28.7345 36.7003 28.7351C36.7145 28.7377 36.7294 28.739 36.7436 28.739C36.7584 28.739 36.7726 28.7371 36.7868 28.7351C36.7913 28.7345 36.7952 28.7332 36.799 28.7326C36.8094 28.73 36.8197 28.7274 36.83 28.7236C36.8345 28.7223 36.8384 28.7204 36.8429 28.7191C36.8545 28.7139 36.8661 28.7081 36.8771 28.7017C36.879 28.7004 36.881 28.6998 36.8823 28.6985C36.8823 28.6985 36.8829 28.6985 36.8835 28.6985C36.8971 28.6901 36.9087 28.6805 36.9197 28.6696C36.9197 28.6696 36.9203 28.6696 36.921 28.6683L43.8484 22.0642C43.8484 22.0642 43.8523 22.0597 43.8542 22.0578C43.8581 22.054 43.862 22.0501 43.8658 22.0456C43.8691 22.0417 43.8723 22.0379 43.8755 22.034C43.8788 22.0295 43.882 22.025 43.8852 22.0205L43.8865 22.0212ZM36.7442 27.7248L34.1204 20.4703H39.368L36.7442 27.7248ZM30.0748 9.2739L33.4953 10.7213V20.0429L30.0748 21.4903V9.2739ZM36.7442 3.03942L39.368 10.2939H34.1204L36.7442 3.03942ZM34.0114 10.8081H39.4776V19.9554H34.0114V10.8081ZM39.9937 20.0429V10.7213L43.4143 9.2739V21.4903L39.9937 20.0429ZM43.2104 8.80085L42.0556 9.28933L39.8854 10.2078L37.359 3.22259L43.2097 8.80085H43.2104ZM36.1294 3.22324L33.603 10.2084L31.4328 9.28997L30.278 8.8015L36.1294 3.22324ZM30.278 21.9627L31.727 21.3495L33.6024 20.5557L36.1287 27.5409L30.278 21.9627ZM39.886 20.5557L41.7614 21.3495L43.2104 21.9627L37.3597 27.5409L39.886 20.5557Z"
      fill="white" />
  </g>
  <path
    d="M57.5 15.3887C57.5 16.2171 56.8284 16.8887 56 16.8887C55.1716 16.8887 54.5 16.2171 54.5 15.3887C54.5 14.5602 55.1716 13.8887 56 13.8887C56.8284 13.8887 57.5 14.5602 57.5 15.3887Z"
    fill="white" />
  <defs>
    <linearGradient id="paint0_linear_0_1" x1="36.6777" y1="28.3929" x2="36.7418" y2="20.443"
      gradientUnits="userSpaceOnUse">
      <stop stop-color="#441A1A" />
      <stop offset="1" stop-color="#A43C51" />
    </linearGradient>
    <linearGradient id="paint1_linear_0_1" x1="31.7263" y1="21.7535" x2="31.8268" y2="9.29996"
      gradientUnits="userSpaceOnUse">
      <stop stop-color="#BD4B4E" />
      <stop offset="1" stop-color="#C6898A" />
    </linearGradient>
    <linearGradient id="paint2_linear_0_1" x1="41.7627" y1="9.00946" x2="41.6615" y2="21.463"
      gradientUnits="userSpaceOnUse">
      <stop stop-color="#C8686B" />
      <stop offset="1" stop-color="#9F3B45" />
    </linearGradient>
    <linearGradient id="paint3_linear_0_1" x1="33.2411" y1="20.3067" x2="33.3051" y2="28.256"
      gradientUnits="userSpaceOnUse">
      <stop stop-color="#D36363" />
      <stop offset="1" stop-color="#5F2029" />
    </linearGradient>
    <linearGradient id="paint4_linear_0_1" x1="40.2479" y1="20.3067" x2="40.1839" y2="28.256"
      gradientUnits="userSpaceOnUse">
      <stop stop-color="#B94F53" />
      <stop offset="1" stop-color="#5F232F" />
    </linearGradient>
    <clipPath id="clip0_0_1">
      <rect width="16" height="29" fill="white" transform="translate(28.5 0.888672)" />
    </clipPath>
  </defs>
</svg>