<svg width="53" height="24" viewBox="0 0 53 24" fill="none" xmlns="http://www.w3.org/2000/svg">
  <path
    d="M3.5 12C3.5 12.8284 2.82843 13.5 2 13.5C1.17157 13.5 0.5 12.8284 0.5 12C0.5 11.1716 1.17157 10.5 2 10.5C2.82843 10.5 3.5 11.1716 3.5 12Z"
    fill="white" />
  <path
    d="M33.4969 5.67399L24.324 0.0443116C24.324 0.0443116 24.3181 0.0414982 24.3151 0.0393881C24.3122 0.0379814 24.31 0.0358713 24.3063 0.0344646C24.3034 0.0323545 24.3004 0.0316511 24.2975 0.0302444C24.2916 0.027431 24.2857 0.0246175 24.2799 0.0225075C24.2732 0.019694 24.2674 0.017584 24.2615 0.0154739C24.2549 0.0133638 24.249 0.0112537 24.2424 0.00984702C24.2365 0.0084403 24.2299 0.00703359 24.2233 0.00562687C24.2174 0.00422015 24.2108 0.00351679 24.2041 0.00281343C24.1975 0.00211008 24.1916 0.00140672 24.185 0.000703359C24.1784 0 24.1718 0 24.1652 0C24.1593 0 24.1527 0 24.1461 0.000703359C24.1395 0.00140672 24.1336 0.00211008 24.127 0.00281343C24.1203 0.00281343 24.1137 0.00422015 24.1079 0.00562687C24.1012 0.00703359 24.0946 0.0084403 24.0887 0.00984702C24.0821 0.0112537 24.0762 0.0133638 24.0696 0.0154739C24.0637 0.017584 24.0579 0.019694 24.0512 0.0225075C24.0454 0.0246175 24.0395 0.027431 24.0336 0.0302444C24.0307 0.0316511 24.027 0.0323545 24.0248 0.0344646C24.0211 0.0358713 24.0189 0.0379814 24.016 0.0393881C24.013 0.0414982 24.0094 0.0422015 24.0071 0.0443116L14.8334 5.67399C14.7496 5.72534 14.6982 5.81467 14.6982 5.91103V17.1704C14.6982 17.266 14.7496 17.3554 14.8334 17.4074L14.8812 17.4363L24.0071 23.0371C24.0071 23.0371 24.0123 23.0392 24.0145 23.0413C24.0182 23.0427 24.0211 23.0448 24.0248 23.047C24.0285 23.0491 24.0321 23.0505 24.0358 23.0519C24.041 23.0547 24.0454 23.0568 24.0505 23.0582C24.0579 23.0617 24.066 23.0645 24.074 23.0666C24.0784 23.0681 24.0829 23.0702 24.088 23.0709C24.0968 23.0737 24.1056 23.0751 24.1137 23.0765C24.1181 23.0772 24.1226 23.0779 24.1262 23.0786C24.1395 23.0807 24.1527 23.0814 24.1652 23.0814C24.1784 23.0814 24.1916 23.0807 24.2041 23.0786L24.2174 23.0765C24.2255 23.0751 24.2343 23.0737 24.2431 23.0709C24.2475 23.0702 24.2527 23.0681 24.2571 23.0666C24.2652 23.0645 24.2725 23.0617 24.2806 23.0582C24.285 23.0568 24.2901 23.0547 24.2946 23.0519C24.299 23.0505 24.3026 23.0491 24.3063 23.047C24.31 23.0448 24.3129 23.0427 24.3159 23.0413C24.3188 23.0392 24.3218 23.0385 24.324 23.0371L33.4499 17.4363L33.4969 17.4074C33.5815 17.3554 33.6329 17.266 33.6329 17.1704V5.91103C33.6329 5.81467 33.5815 5.72534 33.4969 5.67399ZM15.2862 6.52084L18.4493 8.45507V14.7804L15.2862 16.7153V6.52084ZM23.8712 22.2852L15.5854 17.1999L18.833 15.2136L23.8712 17.8569V22.2852ZM23.8712 17.2154L19.3982 14.8683L21.0816 13.8379L23.8712 12.1315V17.2154ZM19.0373 14.421V8.81519L23.6198 11.6181L19.0373 14.421ZM23.8712 11.1039L19.3108 8.31511L23.8712 5.92228V11.1039ZM23.8712 5.28011L18.7462 7.96905L16.541 6.62071L15.459 5.95885L23.8712 0.795499V5.28011ZM24.4592 0.795499L32.8721 5.95885L29.5849 7.96905L24.4592 5.28011V0.795499ZM24.4592 5.92158L28.3955 7.98664L29.0203 8.31511L24.4592 11.1039V5.92158ZM29.2938 8.81519V14.421L24.7113 11.6181L29.2938 8.81519ZM24.4592 12.1315L27.3525 13.9012L28.9329 14.8683L24.4592 17.2154V12.1315ZM24.4592 22.2852V17.8569L29.4974 15.2136L32.7457 17.1999L24.4592 22.2852ZM33.0449 16.7153L29.8818 14.7804V8.45578L33.0449 6.52084V16.7153Z"
    fill="white" />
  <path d="M18.4492 8.45523V14.7805L15.2862 16.7155V6.521L18.4492 8.45523Z" fill="" />
  <path d="M18.8329 15.2139L23.8711 17.8571V22.2854L15.5854 17.2002L18.8329 15.2139Z" fill="#13283C" />
  <path d="M33.0449 6.521V16.7155L29.8818 14.7805V8.45594L33.0449 6.521Z" fill="#70ABAA" />
  <path d="M32.7457 17.2002L24.4592 22.2854V17.8571L29.4974 15.2139L32.7457 17.2002Z" fill="" />
  <path d="M29.2938 8.81543V14.4212L24.7113 11.6183L29.2938 8.81543Z" fill="#ACCDC8" />
  <path d="M28.9329 14.8681L24.4592 17.2152V12.1313L27.3524 13.901L28.9329 14.8681Z" fill="" />
  <path d="M23.8711 12.1313V17.2152L19.3982 14.8681L21.0815 13.8377L23.8711 12.1313Z" fill="#12414C" />
  <path d="M23.6197 11.6183L19.0373 14.4212V8.81543L23.6197 11.6183Z" fill="u" />
  <path d="M23.8712 5.92236V11.104L19.3108 8.31519L23.8712 5.92236Z" fill="#3A8189" />
  <path d="M29.0203 8.31492L24.4592 11.1037V5.92139L28.3955 7.98645L29.0203 8.31492Z" fill="#D7E6DF" />
  <path d="M32.8721 5.95877L29.5849 7.96896L24.4592 5.28002V0.79541L32.8721 5.95877Z" fill="" />
  <path d="M23.8712 0.79541V5.28002L18.7462 7.96896L16.541 6.62063L15.459 5.95877L23.8712 0.79541Z" fill="#D9E7E0" />
  <circle cx="49" cy="12" r="3" stroke="white" />
  <defs>
    <linearGradient id="paint0_linear_0_1" x1="16.9019" y1="6.64338" x2="16.8259" y2="16.4145"
      gradientUnits="userSpaceOnUse">
      <stop stop-color="#2C6571" />
      <stop offset="1" stop-color="#47888E" />
    </linearGradient>
    <linearGradient id="paint1_linear_0_1" x1="31.6688" y1="15.5895" x2="24.4942" y2="20.5446"
      gradientUnits="userSpaceOnUse">
      <stop stop-color="#183E4D" />
      <stop offset="1" stop-color="#338489" />
    </linearGradient>
    <linearGradient id="paint2_linear_0_1" x1="28.3771" y1="14.6733" x2="23.9035" y2="14.6733"
      gradientUnits="userSpaceOnUse">
      <stop stop-color="#2B7276" />
      <stop offset="1" stop-color="#8ECFCD" />
    </linearGradient>
    <linearGradient id="paint3_linear_0_1" x1="23.2037" y1="11.6183" x2="18.6212" y2="11.6183"
      gradientUnits="userSpaceOnUse">
      <stop stop-color="#0C4D57" />
      <stop offset="1" stop-color="#195761" />
    </linearGradient>
    <linearGradient id="paint4_linear_0_1" x1="31.782" y1="7.74459" x2="24.2128" y2="2.10662"
      gradientUnits="userSpaceOnUse">
      <stop stop-color="#76B1B0" />
      <stop offset="1" stop-color="#B0D0D3" />
    </linearGradient>
  </defs>
</svg>