<svg viewBox="0 0 38 37" fill="none" xmlns="http://www.w3.org/2000/svg">
  <path
    d="M26.9972 15.8311C26.4373 15.8498 25.9101 16.0784 25.5042 16.461C23.7311 15.2526 21.6455 14.59 19.5039 14.5434L20.5164 9.68159L23.8525 10.3815C23.9458 11.2353 24.711 11.8559 25.5695 11.7625C26.4233 11.6692 27.0439 10.904 26.9506 10.0455C26.8573 9.19167 26.0921 8.57112 25.2336 8.66444C24.7436 8.71576 24.3004 9.00037 24.0578 9.42963L20.2411 8.66444C19.9798 8.60845 19.7232 8.76709 19.6626 9.03304V9.04237L18.5101 14.4501C16.3405 14.4827 14.2315 15.1499 12.4352 16.3677C11.5207 15.5092 10.0789 15.5512 9.22043 16.4704C8.36192 17.3849 8.40391 18.8266 9.32308 19.6851C9.50038 19.8531 9.70568 19.9931 9.9343 20.0957C9.9203 20.3243 9.9203 20.553 9.9343 20.7816C9.9343 24.2716 13.9982 27.1084 19.014 27.1084C24.0298 27.1084 28.0937 24.2716 28.0937 20.7816C28.1077 20.553 28.1077 20.3243 28.0937 20.0957C28.8776 19.7038 29.3675 18.9013 29.3535 18.0241C29.3068 16.769 28.2523 15.7891 26.9972 15.8311ZM13.7743 19.5825C13.7743 18.724 14.4742 18.0194 15.3327 18.0194C16.1912 18.0194 16.8957 18.7193 16.8957 19.5825C16.8957 20.4456 16.1958 21.1409 15.3327 21.1409C14.4695 21.1315 13.7743 20.441 13.7743 19.5825ZM22.826 23.931V23.8704C21.7202 24.7009 20.3624 25.1301 18.9767 25.0695C17.5909 25.1255 16.2332 24.7009 15.1274 23.8704C14.9781 23.6931 15.0061 23.4271 15.1834 23.2778C15.3373 23.1518 15.5613 23.1518 15.7199 23.2778C16.6578 23.9637 17.8009 24.3136 18.9627 24.2576C20.1245 24.3183 21.2723 23.987 22.2194 23.3105C22.3921 23.1425 22.6673 23.1472 22.8353 23.3198C23.0033 23.4924 22.9986 23.7677 22.826 23.9357V23.931ZM22.6114 21.2575H22.532L22.5414 21.2015C21.6828 21.2015 20.983 20.5016 20.983 19.6431C20.983 18.7846 21.6828 18.0801 22.5414 18.0801C23.3999 18.0801 24.1044 18.7799 24.1044 19.6431C24.1371 20.5016 23.4699 21.2248 22.6114 21.2622V21.2575ZM19 0C8.78184 0 0.5 8.28184 0.5 18.5C0.5 28.7181 8.78184 37 19 37C29.2182 37 37.5 28.7181 37.5 18.5C37.5 8.28184 29.2182 0 19 0ZM19 35.2596C9.76166 35.2596 2.24501 27.743 2.24501 18.5047C2.24501 9.26633 9.76166 1.74968 19 1.74968C28.2383 1.74968 35.755 9.26633 35.755 18.5047C35.755 27.743 28.2383 35.2596 19 35.2596Z"
    fill="currentColor" />
</svg>