<svg stroke="currentColor" viewBox="0 0 38 37" fill="none" xmlns="http://www.w3.org/2000/svg">
  <path
    d="M17.8149 10.3348C17.8149 10.3348 16.9657 11.1373 16.9517 13.4796V15.9245H13.8769V19.3865H16.9517V28.3309H20.4977V19.3865H23.5492L23.9738 15.9245H20.4977V13.4796C20.5071 13.2043 20.6284 12.0005 22.0515 12.0238H24.1277V8.76242H21.0203C21.0203 8.76242 19.0653 8.71576 17.8195 10.3348H17.8149ZM19 0C8.78184 0 0.5 8.28184 0.5 18.5C0.5 28.7182 8.78184 37 19 37C29.2182 37 37.5 28.7182 37.5 18.5C37.5 8.28184 29.2182 0 19 0ZM19 35.2596C9.76167 35.2596 2.24502 27.743 2.24502 18.5047C2.24502 9.26633 9.76167 1.74968 19 1.74968C28.2383 1.74968 35.755 9.26633 35.755 18.5047C35.755 27.743 28.2383 35.2596 19 35.2596Z"
    fill="currentColor" />
</svg>