<svg stroke="currentColor" viewBox="0 0 38 37" fill="none" xmlns="http://www.w3.org/2000/svg">
  <path
    d="M19 0C8.78184 0 0.5 8.28184 0.5 18.5C0.5 28.7182 8.78184 37 19 37C29.2182 37 37.5 28.7182 37.5 18.5C37.5 8.28184 29.2182 0 19 0ZM19 35.2596C9.76167 35.2596 2.24502 27.743 2.24502 18.5047C2.24502 9.26633 9.76167 1.74968 19 1.74968C28.2383 1.74968 35.755 9.26633 35.755 18.5047C35.755 27.743 28.2383 35.2596 19 35.2596Z"
    fill="currentColor" />
  <path
    d="M19 8.5C13.4772 8.5 9 12.9772 9 18.5C9 22.7107 11.8929 26.2804 15.8036 27.5821C16.3036 27.6786 16.5 27.3786 16.5 27.125V25.4821C13.8214 26.0821 13.25 24.3214 13.25 24.3214C12.7857 23.1786 12.1071 22.8786 12.1071 22.8786C11.1607 22.2536 12.1786 22.2679 12.1786 22.2679C13.2321 22.3429 13.75 23.3214 13.75 23.3214C14.6786 24.8571 16.1429 24.3929 16.5357 24.1786C16.625 23.5 16.8929 23.0357 17.1893 22.8286C15.1071 22.6214 12.9107 21.7857 12.9107 18.3571C12.9107 17.2857 13.3036 16.4107 13.7679 15.7321C13.6607 15.5214 13.3036 14.5357 13.875 13.1786C13.875 13.1786 14.7321 12.9286 16.5 14.1429C17.3393 13.9607 18.2143 13.8679 19.0893 13.8679C19.9643 13.8679 20.8393 13.9607 21.6786 14.1429C23.4464 12.9286 24.3036 13.1786 24.3036 13.1786C24.875 14.5357 24.5179 15.5214 24.4107 15.7321C24.875 16.4107 25.2679 17.2857 25.2679 18.3571C25.2679 21.7929 23.0679 22.6179 20.9821 22.8214C21.3393 23.1429 21.6607 23.7679 21.6607 24.7321V27.125C21.6607 27.3821 21.8571 27.6857 22.3679 27.5821C26.2679 26.2786 29 22.7071 29 18.5C29 12.9772 24.5228 8.5 19 8.5Z"
    fill="currentColor" />
</svg>