<svg viewBox="0 0 38 37" fill="none" xmlns="http://www.w3.org/2000/svg">
  <mask id="mask0_185_1820" style="mask-type:luminance" maskUnits="userSpaceOnUse" x="0" y="0" width="38" height="37">
    <path
      d="M22.8027 8.76242H15.2954C11.9686 8.76242 9.26713 11.4593 9.26713 14.7907V22.298C9.26713 25.6247 11.964 28.3262 15.2954 28.3262H22.8027C26.1294 28.3262 28.8309 25.6294 28.8309 22.298V14.7907C28.8309 11.4593 26.1341 8.76242 22.8027 8.76242ZM26.9506 21.5748C26.9506 24.267 24.7717 26.4459 22.0795 26.4459H16.0139C13.3217 26.4459 11.1428 24.267 11.1428 21.5748V15.5092C11.1428 12.8217 13.3217 10.6381 16.0139 10.6381H22.0795C24.767 10.6381 26.9506 12.8217 26.9506 15.5092V21.5748ZM19.3126 13.4236C16.4665 13.4236 14.1616 15.7285 14.1616 18.5747C14.1616 21.4208 16.4665 23.7257 19.3126 23.7257C22.1588 23.7257 24.4637 21.4161 24.4637 18.5747C24.4637 15.7332 22.1588 13.4236 19.3126 13.4236ZM19.3126 21.6774C17.6003 21.6774 16.2099 20.287 16.2099 18.5793C16.2099 16.8716 17.5956 15.4812 19.3126 15.4812C21.0297 15.4812 22.4108 16.867 22.4108 18.5793C22.4108 20.2917 21.0203 21.6774 19.3126 21.6774ZM18.9301 0C8.71191 0 0.430054 8.28184 0.430054 18.5C0.430054 28.7182 8.71191 37 18.9301 37C29.1482 37 37.4301 28.7182 37.4301 18.5C37.4301 8.28184 29.1482 0 18.9301 0ZM18.9301 35.2596C9.69173 35.2596 2.17508 27.743 2.17508 18.5047C2.17508 9.26633 9.69173 1.74968 18.9301 1.74968C28.1684 1.74968 35.685 9.26633 35.685 18.5047C35.685 27.743 28.1684 35.2596 18.9301 35.2596ZM24.1091 12.0332C23.3859 12.0332 22.798 12.6211 22.798 13.3443C22.798 14.0675 23.3859 14.6554 24.1091 14.6554C24.8323 14.6554 25.4202 14.0675 25.4202 13.3443C25.4202 12.6211 24.8323 12.0332 24.1091 12.0332Z"
      fill="currentColor" />
  </mask>
  <g mask="url(#mask0_185_1820)">
    <path
      d="M0.430054 18.5049C0.430054 28.723 8.71191 37.0049 18.9301 37.0049C20.9597 37.0049 22.91 36.6736 24.7344 36.0717C28.9896 31.4479 31.5884 25.2843 31.5884 18.5049C31.5884 11.7254 28.9849 5.56188 24.7344 0.938048C22.91 0.336156 20.9597 0.00488281 18.9301 0.00488281C8.71191 0.00488281 0.430054 8.28672 0.430054 18.5049Z"
      fill="currentColor" />
    <path
      d="M18.818 0.0140582C12.2812 0.0560507 6.56092 3.4901 3.30884 8.63184C8.34326 20.0444 17.6189 29.1428 29.1342 33.9579C34.1779 30.6219 37.4907 24.8922 37.4487 18.3927C37.3787 8.17459 29.0409 -0.0512633 18.8227 0.0140582H18.818Z"
      fill="currentColor" />
    <path
      d="M18.9301 15.4443C11.8334 15.4443 5.46918 18.5611 1.11597 23.4976C3.29491 31.2895 10.443 37.0051 18.9301 37.0051C27.4172 37.0051 34.5653 31.2895 36.7442 23.4976C32.391 18.5611 26.0268 15.4443 18.9301 15.4443Z"
      fill="currentColor" />
  </g>
</svg>