<svg viewBox="0 0 38 37" fill="none" xmlns="http://www.w3.org/2000/svg">
  <path
    d="M19 8.78109C13.261 8.78109 8.61388 12.5044 8.61388 17.1003C8.61388 21.1968 12.3092 24.5982 17.1757 25.2888C17.2923 25.3028 17.4043 25.3214 17.5209 25.3308C19.1773 25.676 17.7402 27.7477 18.2861 28.1723C18.9114 28.6622 23.6378 25.4987 26.512 22.8439C26.9272 22.4939 27.3052 22.1207 27.6411 21.7148H27.6458C27.7251 21.6214 27.7904 21.5421 27.8371 21.4675C28.8216 20.1984 29.3861 18.7006 29.3861 17.0956C29.3861 12.4997 24.7343 8.77642 19 8.77642V8.78109ZM15.6079 19.2092C15.6079 19.5078 15.3653 19.7504 15.0667 19.7504H12.9718C12.6731 19.7504 12.4305 19.5078 12.4305 19.2092V15.1919C12.4305 14.8933 12.6731 14.6507 12.9718 14.6507H13.0184C13.317 14.6507 13.5597 14.8933 13.5597 15.1919V18.6213H15.0667C15.3653 18.6213 15.6079 18.8639 15.6079 19.1626V19.2092ZM17.1757 19.2092C17.1757 19.5078 16.933 19.7504 16.6344 19.7504H16.5878C16.2892 19.7504 16.0465 19.5078 16.0465 19.2092V15.1919C16.0465 14.8933 16.2892 14.6507 16.5878 14.6507H16.6344C16.933 14.6507 17.1757 14.8933 17.1757 15.1919V19.2092ZM22.0841 19.2092C22.0841 19.3538 22.0281 19.4892 21.9255 19.5871C21.8928 19.6245 21.8462 19.6618 21.7948 19.6851C21.7155 19.7271 21.6315 19.7504 21.5429 19.7504H21.4962C21.4216 19.7504 21.3562 19.7364 21.2909 19.7084C21.2069 19.6758 21.1323 19.6291 21.081 19.5545C21.081 19.5545 21.053 19.5172 21.039 19.4985L19.0653 16.8063V19.2092C19.0653 19.5078 18.8227 19.7504 18.5241 19.7504H18.4774C18.1788 19.7504 17.9362 19.5078 17.9362 19.2092V15.1919C17.9362 14.8933 18.1788 14.6507 18.4774 14.6507H18.5241C18.7247 14.6507 18.902 14.7627 18.9953 14.926L20.955 17.5528V15.1919C20.955 14.8933 21.1976 14.6507 21.4962 14.6507H21.5429C21.8415 14.6507 22.0841 14.8933 22.0841 15.1919V19.2092ZM25.9567 15.2479C25.9567 15.5465 25.7141 15.7892 25.4155 15.7892H23.9084V16.6477H25.4155C25.7141 16.6477 25.9567 16.8903 25.9567 17.1889V17.2356C25.9567 17.5342 25.7141 17.7768 25.4155 17.7768H23.9084V18.6353H25.4155C25.7141 18.6353 25.9567 18.8779 25.9567 19.1765V19.2232C25.9567 19.5218 25.7141 19.7644 25.4155 19.7644H23.3206C23.0219 19.7644 22.7793 19.5218 22.7793 19.2232V15.2059C22.7793 14.9073 23.0219 14.6647 23.3206 14.6647H25.4155C25.7141 14.6647 25.9567 14.9073 25.9567 15.2059V15.2526V15.2479ZM19 0C8.78185 0 0.5 8.28184 0.5 18.5C0.5 28.7182 8.78185 37 19 37C29.2182 37 37.5 28.7182 37.5 18.5C37.5 8.28184 29.2182 0 19 0ZM19 35.2597C9.76167 35.2597 2.24503 27.743 2.24503 18.5047C2.24503 9.26633 9.76167 1.74968 19 1.74968C28.2383 1.74968 35.755 9.26633 35.755 18.5047C35.755 27.743 28.2383 35.2597 19 35.2597Z"
    fill="currentColor" />
</svg>