<svg stroke="currentColor" viewBox="0 0 38 37" fill="none" xmlns="http://www.w3.org/2000/svg">
  <path
    d="M19 0C8.78184 0 0.5 8.28184 0.5 18.5C0.5 28.7182 8.78184 37 19 37C29.2182 37 37.5 28.7182 37.5 18.5C37.5 8.28184 29.2182 0 19 0ZM19 35.2596C9.76167 35.2596 2.24502 27.743 2.24502 18.5047C2.24502 9.26633 9.76167 1.74968 19 1.74968C28.2383 1.74968 35.755 9.26633 35.755 18.5047C35.755 27.743 28.2383 35.2596 19 35.2596Z"
    fill="currentColor" />
  <path
    d="M11.5 13.5V27.5H8.5V13.5H11.5ZM10 8.5C11.1046 8.5 12 9.39543 12 10.5C12 11.6046 11.1046 12.5 10 12.5C8.89543 12.5 8 11.6046 8 10.5C8 9.39543 8.89543 8.5 10 8.5ZM29.5 27.5H26.5V20.75C26.5 18.5 25.5 17.5 23.5 17.5C21.5 17.5 20.5 18.75 20.5 20.75V27.5H17.5V13.5H20.5V15.25C21.25 14.25 22.75 13.25 24.75 13.25C27.75 13.25 29.5 15.25 29.5 18.75V27.5Z"
    fill="currentColor" />
</svg>