<svg width="20" height="20" viewBox="0 0 20 20" fill="none" xmlns="http://www.w3.org/2000/svg">
  <path
    d="M10 0C7.34752 0 4.80486 1.05342 2.92841 2.92841C1.05342 4.80466 0 7.34743 0 10C0 12.6526 1.05342 15.1951 2.92841 17.0716C4.80466 18.9466 7.34743 20 10 20C12.6526 20 15.1951 18.9466 17.0716 17.0716C18.9466 15.1953 20 12.6526 20 10C19.9975 7.34878 18.9428 4.80582 17.0691 2.93099C15.1941 1.05725 12.6513 0.00251612 10 0ZM13.91 12.5416C14.0927 12.723 14.1948 12.9687 14.1948 13.2258C14.1948 13.4829 14.0927 13.7286 13.91 13.91C13.7285 14.0915 13.4828 14.1935 13.2258 14.1935C12.9687 14.1935 12.723 14.0915 12.5415 13.91L9.99997 11.3672L7.4584 13.9088V13.91C7.27694 14.0915 7.03124 14.1935 6.77417 14.1935C6.51711 14.1935 6.2714 14.0915 6.08995 13.91C5.90724 13.7286 5.80517 13.4829 5.80517 13.2258C5.80517 12.9687 5.90724 12.723 6.08995 12.5416L8.63278 10L6.09121 7.45843H6.08995C5.71698 7.07914 5.7195 6.47053 6.09499 6.09502C6.4705 5.7195 7.07911 5.71698 7.4584 6.08997L9.99997 8.6328L12.5415 6.09123V6.08997C12.9208 5.71701 13.5294 5.71952 13.905 6.09501C14.2805 6.47053 14.283 7.07914 13.91 7.45843L11.3672 10L13.91 12.5416Z"
    fill="currentColor" />
</svg>