<svg viewBox="0 0 38 37" fill="none" xmlns="http://www.w3.org/2000/svg">
  <path
    d="M28.6472 13.2165C28.4944 12.6434 28.0373 12.1863 27.4642 12.0334C26.4311 11.7634 19 11.7634 19 11.7634C19 11.7634 11.5689 11.7634 10.5358 12.0334C9.96267 12.1863 9.50561 12.6434 9.35279 13.2165C9.08279 14.2496 9.08279 16.4268 9.08279 16.4268C9.08279 16.4268 9.08279 18.604 9.35279 19.6371C9.50561 20.2102 9.96267 20.6673 10.5358 20.8202C11.5689 21.0902 19 21.0902 19 21.0902C19 21.0902 26.4311 21.0902 27.4642 20.8202C28.0373 20.6673 28.4944 20.2102 28.6472 19.6371C28.9172 18.604 28.9172 16.4268 28.9172 16.4268C28.9172 16.4268 28.9172 14.2496 28.6472 13.2165ZM16.8205 18.5902V14.2634L22.4639 16.4268L16.8205 18.5902Z"
    fill="currentColor" />
  <circle cx="19" cy="18.4998" r="17.53" stroke="currentColor" stroke-width="1.8" />
</svg>